<svg xmlns="http://www.w3.org/2000/svg" height="48" viewBox="0 -960 960 960" width="48"><path d="M320-201.5q-116.373 0-197.437-81.089-81.063-81.09-81.063-197.5 0-116.411 81.063-197.661Q203.627-759 320-759h320q116.582 0 197.791 81.192T919-480.058Q919-363.5 837.791-282.5q-81.209 81-197.791 81H320Zm41.5-307.911q0 55.411 38 96.911t80.5 78q42.5-36.5 80.75-78.187T599-509.814q0-49.702-34.799-84.444Q529.402-629 479.951-629T396-594.043q-34.5 34.957-34.5 84.632ZM480-480q-17 0-28.5-11.5T440-520q0-17 11.5-28.5T480-560q17 0 28.5 11.5T520-520q0 17-11.5 28.5T480-480Z"/></svg>