<?xml version="1.0" encoding="UTF-8" standalone="no"?>
<!DOCTYPE svg PUBLIC "-//W3C//DTD SVG 1.1//EN" "http://www.w3.org/Graphics/SVG/1.1/DTD/svg11.dtd">
<svg xmlns="http://www.w3.org/2000/svg" version="1.1" viewBox="0.00 0.00 362.00 305.00" width="362.00" height="305.00">
<g stroke-width="2.00" fill="none" stroke-linecap="butt">
<path stroke="#8a9da2" vector-effect="non-scaling-stroke" d="
  M 137.84 93.27
  Q 139.25 102.88 140.45 106.76
  Q 145.14 121.81 155.66 134.11
  Q 161.87 141.36 168.56 148.18
  Q 182.61 162.51 197.33 176.89
  Q 199.35 178.87 201.45 180.72
  A 1.62 1.61 43.8 0 0 203.64 180.68
  Q 213.20 171.57 222.88 162.59
  Q 235.73 150.67 246.06 138.33
  Q 256.10 126.35 262.03 112.98
  Q 263.35 110.00 265.51 101.59
  Q 265.60 101.24 265.24 101.24
  L 256.76 101.28
  Q 256.38 101.28 256.28 101.65
  Q 251.71 118.49 239.56 132.36
  Q 223.14 151.11 203.21 168.03
  A 1.27 1.27 0.0 0 1 201.55 168.01
  Q 189.51 157.20 178.65 146.61
  Q 172.30 140.41 166.38 133.66
  C 156.04 121.87 147.46 106.63 147.33 90.74
  C 147.20 75.23 153.02 59.85 164.53 49.32
  Q 165.40 48.52 164.59 47.65
  Q 162.34 45.25 160.68 42.39
  Q 159.95 41.12 158.88 42.13
  Q 141.11 58.99 137.97 84.87"
/>
<path stroke="#79869b" vector-effect="non-scaling-stroke" d="
  M 64.09 239.23
  Q 64.64 239.34 64.69 240.23
  C 65.97 260.28 84.51 265.61 101.22 262.03
  Q 111.54 259.82 116.61 251.52
  Q 119.19 247.29 120.01 240.32
  Q 120.76 233.84 120.53 227.76
  Q 120.40 224.22 120.38 220.74
  Q 120.25 199.80 120.56 179.72
  A 0.83 0.83 0.0 0 0 119.27 179.02
  L 100.89 191.23
  A 2.84 2.83 -17.1 0 0 99.62 193.61
  Q 99.77 215.17 99.41 236.93
  C 99.37 239.03 98.93 241.01 98.61 243.06
  C 97.91 247.58 92.64 251.05 88.72 247.79
  C 85.56 245.15 85.11 239.38 85.09 235.49
  Q 85.03 214.38 85.07 193.50
  A 1.30 1.30 0.0 0 0 83.75 192.19
  Q 74.37 192.30 64.75 192.25
  Q 64.48 192.25 63.73 192.77"
/>
<path stroke="#79869b" vector-effect="non-scaling-stroke" d="
  M 318.75 217.56
  Q 319.75 220.39 318.70 222.91
  Q 318.47 223.48 318.09 222.99
  L 285.07 179.97
  Q 283.60 178.05 283.62 180.47
  Q 283.66 186.26 283.68 191.25
  Q 283.87 225.87 283.76 261.68
  A 1.23 1.22 0.5 0 0 284.98 262.91
  L 303.52 263.01
  A 1.29 1.28 0.0 0 0 304.81 261.73
  L 304.74 232.94
  Q 304.73 231.28 305.85 232.51
  Q 308.25 235.12 310.64 238.31
  Q 322.71 254.36 337.22 272.88
  Q 338.20 274.12 338.99 275.59
  Q 339.17 275.93 339.55 275.97
  Q 339.87 276.01 340.12 275.67
  A 0.66 0.65 63.0 0 0 340.24 275.29
  L 340.08 193.53
  A 1.25 1.25 0.0 0 0 338.87 192.28
  L 318.94 191.66"
/>
<path stroke="#79869b" vector-effect="non-scaling-stroke" d="
  M 318.68 212.18
  Q 319.45 208.15 318.67 204.21"
/>
<path stroke="#79869b" vector-effect="non-scaling-stroke" d="
  M 57.18 193.05
  Q 55.87 192.27 55.25 192.26
  Q 35.25 192.24 15.25 192.25
  Q 14.78 192.25 14.01 193.00"
/>
<path stroke="#8a9da2" vector-effect="non-scaling-stroke" d="
  M 57.09 206.49
  Q 44.45 205.64 29.40 206.18
  Q 28.51 206.21 29.12 206.85
  L 34.68 212.75
  A 2.63 2.58 -66.8 0 1 35.39 214.57
  L 35.27 233.31
  A 1.72 1.72 0.0 0 0 37.04 235.04
  L 56.84 234.49"
/>
<path stroke="#8a9da2" vector-effect="non-scaling-stroke" d="
  M 35.66 248.98
  L 35.36 261.99
  A 1.04 1.04 0.0 0 1 34.32 263.00
  Q 25.35 262.93 16.00 263.05
  Q 14.90 263.06 14.37 262.21"
/>
<path stroke="#79869b" vector-effect="non-scaling-stroke" d="
  M 14.37 262.21
  L 14.38 193.73
  Q 14.38 193.64 14.30 193.61
  Q 14.21 193.57 14.05 193.54"
/>
<path stroke="#e6dbcd" vector-effect="non-scaling-stroke" d="
  M 14.37 262.21
  Q 14.30 262.48 14.04 262.29"
/>
<path stroke="#aea6a7" vector-effect="non-scaling-stroke" d="
  M 222.86 285.52
  L 222.54 285.31
  Q 221.74 284.81 220.89 284.41
  Q 217.05 282.62 216.27 284.10
  Q 215.83 284.93 216.72 285.25
  Q 220.23 286.51 221.50 286.72
  Q 222.21 286.84 222.10 286.14"
/>
<path stroke="#aea6a7" vector-effect="non-scaling-stroke" d="
  M 269.63 283.26
  Q 268.51 284.56 267.61 284.84
  Q 267.07 285.01 266.68 284.59
  Q 265.35 283.12 263.92 283.35
  Q 259.73 284.02 263.72 285.60
  Q 264.46 285.89 267.15 286.22"
/>
<path stroke="#aea6a7" vector-effect="non-scaling-stroke" d="
  M 337.19 280.74
  L 335.30 282.63"
/>
<path stroke="#aea6a7" vector-effect="non-scaling-stroke" d="
  M 337.08 290.30
  Q 337.95 288.76 337.04 287.56
  Q 336.67 287.07 336.40 287.63
  Q 336.17 288.09 336.27 288.94"
/>
<path stroke="#aea6a7" vector-effect="non-scaling-stroke" d="
  M 330.63 290.92
  Q 330.70 288.75 329.30 286.17
  Q 329.16 285.92 328.93 286.08
  Q 328.82 286.15 328.77 286.29
  Q 328.68 286.51 328.73 286.74
  Q 329.52 290.32 328.88 293.89
  A 1.00 0.99 -11.2 0 1 328.45 294.53
  Q 326.65 295.69 326.62 291.79
  Q 326.62 290.77 326.64 289.61
  Q 326.74 285.39 326.39 281.13"
/>
<path stroke="#aea6a7" vector-effect="non-scaling-stroke" d="
  M 330.27 281.26
  Q 330.83 282.16 331.65 285.49
  Q 332.81 290.22 333.83 288.55"
/>
<path stroke="#aea6a7" vector-effect="non-scaling-stroke" d="
  M 303.82 281.04
  Q 303.18 286.63 303.62 292.54
  C 303.71 293.65 304.25 294.19 304.97 294.93"
/>
<path stroke="#f4d47b" vector-effect="non-scaling-stroke" d="
  M 266.37 30.73
  C 265.64 30.04 265.10 29.34 264.34 28.67
  Q 239.15 6.68 206.01 6.50
  Q 190.81 6.41 176.96 10.60
  C 174.59 11.32 172.41 12.56 170.03 13.28
  Q 167.35 14.08 164.96 15.34
  Q 158.13 18.94 151.71 23.45
  A 1.98 1.97 53.8 0 0 151.28 26.27
  L 166.18 45.71
  A 1.05 1.05 0.0 0 0 167.60 45.94
  Q 177.50 39.28 188.69 36.17
  C 196.21 34.07 203.32 34.15 210.87 34.44
  Q 213.30 34.53 215.60 35.05
  C 219.54 35.94 223.47 36.40 227.03 38.20
  C 230.39 39.90 233.82 41.08 237.14 43.12
  Q 253.02 52.87 261.45 70.08
  Q 264.76 76.84 266.86 88.28
  Q 267.22 90.25 265.22 90.28
  L 260.07 90.38
  Q 257.09 90.44 256.76 87.48
  Q 255.92 80.12 252.62 73.82
  Q 242.64 54.79 224.50 47.66
  Q 214.26 43.63 205.33 43.74
  Q 188.10 43.94 173.85 53.75
  Q 172.80 54.47 173.54 55.51
  Q 178.06 61.83 182.81 67.62
  C 184.74 69.98 185.83 72.51 188.12 74.62
  Q 189.74 76.10 191.15 75.35
  Q 203.97 68.48 216.15 74.36
  Q 220.11 76.28 222.72 79.26
  Q 226.32 83.37 228.04 86.95
  Q 228.86 88.65 226.99 88.89
  C 221.97 89.53 220.74 87.62 218.01 84.26
  Q 216.50 82.39 214.89 81.23
  Q 205.76 74.62 194.88 79.01
  Q 193.40 79.60 192.19 80.62
  C 190.02 82.44 187.88 83.28 186.39 85.92
  Q 181.66 94.33 184.59 104.22
  C 185.02 105.68 186.05 106.91 186.77 108.25
  Q 187.50 109.61 188.84 110.88
  Q 195.93 117.65 205.35 116.70
  Q 211.80 116.04 216.89 111.28
  Q 221.56 106.91 222.64 99.38
  A 2.03 2.03 0.0 0 1 224.77 97.65
  L 236.99 98.36
  Q 239.00 98.48 238.96 96.47
  Q 238.64 82.30 228.43 72.48
  Q 221.18 65.50 213.90 63.87
  Q 203.51 61.55 193.61 64.34
  C 191.02 65.07 188.43 60.58 187.17 58.82
  Q 186.31 57.62 187.40 56.46
  A 2.00 1.97 -77.7 0 1 188.18 55.95
  C 198.07 52.40 210.52 51.89 220.29 55.72
  C 237.71 62.55 248.54 78.43 248.81 97.19
  A 1.61 1.60 0.8 0 0 250.34 98.76
  Q 259.80 99.18 270.14 99.91
  Q 272.98 100.11 275.49 99.53
  Q 276.49 99.30 276.52 98.29
  Q 276.84 87.82 273.84 77.31
  Q 271.38 68.69 266.63 59.69
  Q 265.45 57.46 263.96 55.80
  Q 262.29 53.96 260.90 51.82
  Q 259.53 49.70 257.85 48.17
  Q 255.63 46.15 253.46 44.05
  C 248.88 39.63 243.29 36.09 237.57 32.86
  Q 232.21 29.83 225.61 28.13
  Q 219.11 26.45 213.53 25.57
  Q 203.37 23.96 190.37 26.46
  C 189.31 26.67 188.55 27.47 187.50 27.62
  Q 181.75 28.45 178.01 30.08
  Q 174.01 31.83 170.07 33.68
  A 2.11 2.11 0.0 0 1 167.49 33.04
  L 163.65 27.95
  A 0.98 0.98 0.0 0 1 163.80 26.61
  C 165.88 24.87 167.94 23.50 170.57 22.50
  Q 178.54 19.46 181.19 18.65
  Q 197.78 13.58 215.26 16.22
  Q 224.38 17.59 227.57 18.59
  Q 236.94 21.51 246.70 26.85
  C 249.61 28.43 252.00 30.72 254.77 32.54
  C 257.62 34.41 259.23 37.04 261.91 38.95
  C 263.98 40.42 265.27 42.81 267.07 44.66
  C 269.20 46.84 270.78 49.61 272.68 52.03
  Q 274.46 54.29 277.31 53.92
  Q 279.14 53.68 281.14 53.42
  Q 284.28 53.01 282.69 50.27
  Q 281.46 48.16 280.00 45.86
  C 279.05 44.38 277.50 43.51 276.90 41.92
  Q 276.25 40.18 274.79 38.77
  Q 270.57 34.73 266.37 30.73"
/>
<path stroke="#8a9da2" vector-effect="non-scaling-stroke" d="
  M 239.14 100.44
  Q 237.52 102.51 236.52 104.60
  Q 234.51 108.82 234.41 109.00
  C 226.20 122.46 209.74 129.53 194.34 125.94
  C 182.09 123.07 169.42 113.07 166.62 99.93
  C 163.91 87.25 165.62 73.60 174.73 63.98
  Q 175.65 63.01 174.87 61.92
  L 171.31 56.94
  Q 170.34 55.58 169.19 56.80
  Q 152.17 75.10 156.87 98.64
  Q 158.06 104.64 161.39 110.84
  Q 165.01 117.62 169.90 122.52
  Q 183.30 135.97 201.61 135.96
  Q 212.38 135.96 221.10 131.92
  C 233.70 126.09 243.15 115.71 247.04 102.33
  A 0.89 0.88 8.8 0 0 246.21 101.20
  L 239.18 101.06"
/>
<path stroke="#f4d47b" vector-effect="non-scaling-stroke" d="
  M 216.01 96.96
  A 12.98 12.98 0.0 0 0 203.03 83.98
  A 12.98 12.98 0.0 0 0 190.05 96.96
  A 12.98 12.98 0.0 0 0 203.03 109.94
  A 12.98 12.98 0.0 0 0 216.01 96.96"
/>
<path stroke="#f4d47b" vector-effect="non-scaling-stroke" d="
  M 199.25 271.64
  Q 204.67 267.92 210.71 263.67
  Q 211.72 262.96 212.14 261.70
  Q 212.64 260.19 212.66 258.71
  Q 212.84 237.97 212.65 206.93
  Q 212.61 200.72 212.73 193.18
  A 0.84 0.84 0.0 0 0 211.93 192.33
  Q 202.10 191.79 192.86 192.14
  A 1.28 1.27 88.4 0 0 191.64 193.44
  C 191.67 195.60 191.39 197.73 191.40 199.90
  Q 191.71 237.65 191.45 275.42
  A 0.67 0.67 0.0 0 0 192.31 276.07
  Q 194.76 275.33 196.45 273.82
  Q 197.74 272.67 199.25 271.64"
/>
<path stroke="#79869b" vector-effect="non-scaling-stroke" d="
  M 276.3579 216.6473
  A 24.10 24.10 0.0 0 0 252.3844 192.4214
  L 244.3845 192.3795
  A 24.10 24.10 0.0 0 0 220.1587 216.3530
  L 220.0421 238.6127
  A 24.10 24.10 0.0 0 0 244.0156 262.8386
  L 252.0155 262.8805
  A 24.10 24.10 0.0 0 0 276.2413 238.9070
  L 276.3579 216.6473"
/>
<path stroke="#79869b" vector-effect="non-scaling-stroke" d="
  M 161.37 262.88
  Q 169.05 262.22 175.20 258.92
  C 184.33 254.02 185.92 241.57 182.42 232.65
  C 178.65 223.04 165.87 220.37 156.32 220.64
  C 151.77 220.77 148.80 218.28 148.77 213.53
  Q 148.73 206.96 154.56 206.22
  Q 161.88 205.29 163.28 212.02
  A 1.55 1.54 83.8 0 0 164.80 213.25
  L 183.09 213.15
  A 1.18 1.17 87.3 0 0 184.25 211.87
  Q 182.95 197.29 169.11 193.71
  Q 159.64 191.26 147.35 192.84
  C 137.78 194.06 129.40 199.51 128.29 209.80
  Q 127.72 215.01 128.56 219.02
  C 131.29 232.19 145.74 234.44 157.09 234.67
  C 162.24 234.78 163.73 239.08 163.25 243.59
  C 162.48 250.95 149.60 251.29 148.71 242.92
  A 1.16 1.15 -3.3 0 0 147.55 241.89
  L 128.69 242.07
  Q 128.05 242.08 128.05 242.72
  C 128.09 252.47 133.88 258.66 142.72 261.25
  Q 151.29 263.75 161.37 262.88"
/>
<path stroke="#79869b" vector-effect="non-scaling-stroke" d="
  M 247.93 206.09
  C 243.39 206.04 241.51 211.47 241.24 215.00
  Q 240.55 223.81 241.09 237.21
  C 241.26 241.19 241.54 244.91 244.21 247.46
  C 246.62 249.77 250.53 249.46 252.65 246.88
  C 254.83 244.22 255.28 241.02 255.38 237.65
  Q 255.71 226.90 255.31 216.51
  C 255.21 213.72 254.44 210.96 253.05 208.69
  Q 251.49 206.12 247.93 206.09"
/>
<path stroke="#aea6a7" vector-effect="non-scaling-stroke" d="
  M 46.5853 284.5405
  A 0.86 0.86 0.0 0 0 45.6857 283.7220
  L 41.8899 283.9010
  A 0.86 0.86 0.0 0 0 41.0714 284.8005
  L 41.1147 285.7195
  A 0.86 0.86 0.0 0 0 42.0143 286.5380
  L 45.8101 286.3590
  A 0.86 0.86 0.0 0 0 46.6286 285.4595
  L 46.5853 284.5405"
/>
<path stroke="#aea6a7" vector-effect="non-scaling-stroke" d="
  M 68.82 287.41
  Q 68.23 286.28 67.85 285.13
  A 0.42 0.41 -45.5 0 0 67.06 285.14
  L 65.94 288.60
  Q 65.68 289.42 66.53 289.52
  Q 67.47 289.63 68.39 289.37
  A 0.92 0.92 0.0 0 0 69.06 288.57
  Q 69.12 287.97 68.82 287.41"
/>
</g>
<path fill="#f6f1d3" d="
  M 137.84 93.27
  Q 139.25 102.88 140.45 106.76
  Q 145.14 121.81 155.66 134.11
  Q 161.87 141.36 168.56 148.18
  Q 182.61 162.51 197.33 176.89
  Q 199.35 178.87 201.45 180.72
  A 1.62 1.61 43.8 0 0 203.64 180.68
  Q 213.20 171.57 222.88 162.59
  Q 235.73 150.67 246.06 138.33
  Q 256.10 126.35 262.03 112.98
  Q 263.35 110.00 265.51 101.59
  Q 265.60 101.24 265.24 101.24
  L 256.76 101.28
  Q 256.38 101.28 256.28 101.65
  Q 251.71 118.49 239.56 132.36
  Q 223.14 151.11 203.21 168.03
  A 1.27 1.27 0.0 0 1 201.55 168.01
  Q 189.51 157.20 178.65 146.61
  Q 172.30 140.41 166.38 133.66
  C 156.04 121.87 147.46 106.63 147.33 90.74
  C 147.20 75.23 153.02 59.85 164.53 49.32
  Q 165.40 48.52 164.59 47.65
  Q 162.34 45.25 160.68 42.39
  Q 159.95 41.12 158.88 42.13
  Q 141.11 58.99 137.97 84.87
  Q 138.16 74.87 141.58 65.70
  C 142.70 62.72 144.48 60.11 145.74 57.13
  Q 146.40 55.57 147.45 54.04
  Q 153.25 45.56 158.82 40.76
  A 0.83 0.81 48.9 0 0 158.89 39.59
  C 157.26 37.77 155.59 35.95 154.29 33.87
  Q 151.91 30.04 149.39 26.43
  Q 147.96 24.39 149.81 22.75
  Q 151.38 21.36 152.92 19.81
  Q 154.35 18.38 156.01 17.72
  Q 159.19 16.45 161.16 13.97
  Q 161.52 13.52 162.07 13.33
  Q 169.39 10.90 176.45 8.59
  Q 186.54 5.29 197.50 4.76
  Q 210.25 4.15 221.76 5.79
  C 238.12 8.13 252.92 16.34 265.91 26.89
  Q 268.62 29.09 278.58 40.42
  Q 279.90 41.92 281.33 43.18
  Q 284.03 45.55 284.77 50.84
  C 285.10 53.18 283.25 54.37 281.75 55.73
  Q 280.88 56.51 279.74 56.44
  Q 271.84 55.94 268.73 50.33
  C 267.14 47.45 264.71 45.32 262.69 42.75
  Q 261.73 41.54 260.24 40.81
  Q 258.37 39.88 256.97 38.04
  Q 253.65 33.64 248.74 30.81
  C 247.68 30.20 247.02 28.72 246.02 28.32
  C 244.09 27.55 242.21 26.86 240.43 25.81
  C 234.05 22.05 227.11 19.53 219.51 18.77
  C 210.83 17.89 202.86 16.19 193.99 18.17
  C 189.24 19.23 183.37 18.38 179.17 21.02
  Q 175.61 23.25 171.36 24.21
  C 169.14 24.71 167.89 26.47 167.40 28.64
  C 166.73 31.57 170.36 31.45 171.88 30.42
  C 176.68 27.16 181.85 27.35 187.35 25.83
  Q 188.98 25.38 187.39 24.79
  Q 185.52 24.09 183.51 23.95
  Q 182.55 23.89 183.46 23.57
  C 185.53 22.84 188.62 23.53 190.81 23.73
  Q 192.66 23.90 194.78 23.58
  Q 204.81 22.10 212.13 23.30
  Q 222.18 24.94 236.85 29.31
  A 1.71 1.66 -10.5 0 1 237.66 29.85
  Q 238.08 30.37 238.20 31.05
  A 2.20 2.20 0.0 0 0 240.22 32.88
  Q 242.25 33.03 244.08 34.18
  Q 251.43 38.81 258.29 45.27
  C 261.20 48.02 262.92 50.84 265.30 53.83
  Q 266.66 55.54 267.78 57.39
  Q 275.46 70.14 277.71 84.47
  C 278.33 88.47 278.39 92.59 278.92 96.56
  Q 279.25 99.06 276.90 100.54
  Q 272.20 103.51 267.69 101.48
  A 0.98 0.98 0.0 0 0 266.33 102.16
  C 266.01 103.61 265.89 105.05 265.25 106.43
  C 263.63 109.91 263.08 113.55 261.17 116.94
  C 259.84 119.29 258.98 121.87 257.54 124.11
  Q 250.71 134.76 248.71 137.04
  Q 242.36 144.30 235.26 152.00
  Q 231.56 156.00 227.04 160.09
  Q 220.14 166.33 213.73 172.77
  C 212.94 173.56 212.03 174.09 211.30 174.93
  Q 207.84 178.91 203.05 181.88
  A 1.27 1.26 -41.7 0 1 201.61 181.80
  C 199.17 179.87 196.68 178.17 194.43 175.97
  Q 169.12 151.15 155.49 135.48
  Q 144.66 123.04 140.20 110.00
  Q 137.86 103.19 137.84 93.27
  Z
  M 266.37 30.73
  C 265.64 30.04 265.10 29.34 264.34 28.67
  Q 239.15 6.68 206.01 6.50
  Q 190.81 6.41 176.96 10.60
  C 174.59 11.32 172.41 12.56 170.03 13.28
  Q 167.35 14.08 164.96 15.34
  Q 158.13 18.94 151.71 23.45
  A 1.98 1.97 53.8 0 0 151.28 26.27
  L 166.18 45.71
  A 1.05 1.05 0.0 0 0 167.60 45.94
  Q 177.50 39.28 188.69 36.17
  C 196.21 34.07 203.32 34.15 210.87 34.44
  Q 213.30 34.53 215.60 35.05
  C 219.54 35.94 223.47 36.40 227.03 38.20
  C 230.39 39.90 233.82 41.08 237.14 43.12
  Q 253.02 52.87 261.45 70.08
  Q 264.76 76.84 266.86 88.28
  Q 267.22 90.25 265.22 90.28
  L 260.07 90.38
  Q 257.09 90.44 256.76 87.48
  Q 255.92 80.12 252.62 73.82
  Q 242.64 54.79 224.50 47.66
  Q 214.26 43.63 205.33 43.74
  Q 188.10 43.94 173.85 53.75
  Q 172.80 54.47 173.54 55.51
  Q 178.06 61.83 182.81 67.62
  C 184.74 69.98 185.83 72.51 188.12 74.62
  Q 189.74 76.10 191.15 75.35
  Q 203.97 68.48 216.15 74.36
  Q 220.11 76.28 222.72 79.26
  Q 226.32 83.37 228.04 86.95
  Q 228.86 88.65 226.99 88.89
  C 221.97 89.53 220.74 87.62 218.01 84.26
  Q 216.50 82.39 214.89 81.23
  Q 205.76 74.62 194.88 79.01
  Q 193.40 79.60 192.19 80.62
  C 190.02 82.44 187.88 83.28 186.39 85.92
  Q 181.66 94.33 184.59 104.22
  C 185.02 105.68 186.05 106.91 186.77 108.25
  Q 187.50 109.61 188.84 110.88
  Q 195.93 117.65 205.35 116.70
  Q 211.80 116.04 216.89 111.28
  Q 221.56 106.91 222.64 99.38
  A 2.03 2.03 0.0 0 1 224.77 97.65
  L 236.99 98.36
  Q 239.00 98.48 238.96 96.47
  Q 238.64 82.30 228.43 72.48
  Q 221.18 65.50 213.90 63.87
  Q 203.51 61.55 193.61 64.34
  C 191.02 65.07 188.43 60.58 187.17 58.82
  Q 186.31 57.62 187.40 56.46
  A 2.00 1.97 -77.7 0 1 188.18 55.95
  C 198.07 52.40 210.52 51.89 220.29 55.72
  C 237.71 62.55 248.54 78.43 248.81 97.19
  A 1.61 1.60 0.8 0 0 250.34 98.76
  Q 259.80 99.18 270.14 99.91
  Q 272.98 100.11 275.49 99.53
  Q 276.49 99.30 276.52 98.29
  Q 276.84 87.82 273.84 77.31
  Q 271.38 68.69 266.63 59.69
  Q 265.45 57.46 263.96 55.80
  Q 262.29 53.96 260.90 51.82
  Q 259.53 49.70 257.85 48.17
  Q 255.63 46.15 253.46 44.05
  C 248.88 39.63 243.29 36.09 237.57 32.86
  Q 232.21 29.83 225.61 28.13
  Q 219.11 26.45 213.53 25.57
  Q 203.37 23.96 190.37 26.46
  C 189.31 26.67 188.55 27.47 187.50 27.62
  Q 181.75 28.45 178.01 30.08
  Q 174.01 31.83 170.07 33.68
  A 2.11 2.11 0.0 0 1 167.49 33.04
  L 163.65 27.95
  A 0.98 0.98 0.0 0 1 163.80 26.61
  C 165.88 24.87 167.94 23.50 170.57 22.50
  Q 178.54 19.46 181.19 18.65
  Q 197.78 13.58 215.26 16.22
  Q 224.38 17.59 227.57 18.59
  Q 236.94 21.51 246.70 26.85
  C 249.61 28.43 252.00 30.72 254.77 32.54
  C 257.62 34.41 259.23 37.04 261.91 38.95
  C 263.98 40.42 265.27 42.81 267.07 44.66
  C 269.20 46.84 270.78 49.61 272.68 52.03
  Q 274.46 54.29 277.31 53.92
  Q 279.14 53.68 281.14 53.42
  Q 284.28 53.01 282.69 50.27
  Q 281.46 48.16 280.00 45.86
  C 279.05 44.38 277.50 43.51 276.90 41.92
  Q 276.25 40.18 274.79 38.77
  Q 270.57 34.73 266.37 30.73
  Z
  M 239.14 100.44
  Q 237.52 102.51 236.52 104.60
  Q 234.51 108.82 234.41 109.00
  C 226.20 122.46 209.74 129.53 194.34 125.94
  C 182.09 123.07 169.42 113.07 166.62 99.93
  C 163.91 87.25 165.62 73.60 174.73 63.98
  Q 175.65 63.01 174.87 61.92
  L 171.31 56.94
  Q 170.34 55.58 169.19 56.80
  Q 152.17 75.10 156.87 98.64
  Q 158.06 104.64 161.39 110.84
  Q 165.01 117.62 169.90 122.52
  Q 183.30 135.97 201.61 135.96
  Q 212.38 135.96 221.10 131.92
  C 233.70 126.09 243.15 115.71 247.04 102.33
  A 0.89 0.88 8.8 0 0 246.21 101.20
  L 239.18 101.06
  C 240.96 99.49 244.58 99.96 246.93 100.02
  A 1.24 1.24 0.0 0 1 248.10 101.54
  Q 244.76 115.68 233.43 125.19
  Q 228.67 129.19 224.39 131.50
  Q 215.11 136.51 204.67 136.89
  Q 198.54 137.12 191.04 135.72
  Q 188.75 135.29 186.68 134.32
  C 183.44 132.78 180.27 131.84 177.26 129.81
  Q 160.92 118.74 156.27 100.05
  Q 153.65 89.52 156.01 79.51
  C 156.64 76.84 157.04 74.17 158.18 71.65
  Q 162.18 62.75 169.23 55.49
  Q 170.27 54.43 171.18 55.57
  Q 171.71 56.22 171.67 55.38
  Q 171.59 53.71 172.91 52.63
  C 176.14 49.98 179.74 47.43 183.81 46.30
  C 188.81 44.90 193.74 42.87 198.83 42.29
  Q 204.80 41.61 211.78 42.14
  C 216.18 42.47 220.28 44.76 224.59 45.93
  C 238.46 49.73 247.80 60.48 254.49 72.64
  Q 255.62 74.70 257.32 80.36
  C 257.89 82.29 258.12 83.90 258.07 85.89
  Q 258.05 86.50 258.54 86.86
  C 260.03 88.00 263.00 88.78 264.51 87.20
  Q 265.37 86.31 264.67 85.26
  Q 264.03 84.31 263.70 83.21
  C 262.31 78.66 261.28 73.64 259.16 69.48
  Q 254.43 60.20 246.43 53.04
  C 241.48 48.60 237.03 43.73 230.59 41.47
  C 227.34 40.32 224.26 38.68 220.94 37.81
  Q 208.38 34.53 195.59 36.31
  C 192.78 36.70 190.04 37.80 187.31 38.62
  Q 184.51 39.46 181.86 40.72
  Q 174.94 44.03 167.63 47.67
  A 0.82 0.81 -40.5 0 1 166.81 47.61
  Q 166.25 47.20 165.58 47.30
  Q 165.04 47.38 165.28 47.87
  Q 165.42 48.16 165.62 48.11
  Q 166.40 47.92 165.98 48.60
  Q 165.07 50.07 164.08 51.09
  Q 149.10 66.51 148.00 88.07
  C 147.81 91.85 148.71 95.32 149.12 98.99
  C 149.37 101.24 150.26 103.34 150.87 105.55
  Q 151.51 107.88 152.61 110.34
  Q 159.23 125.22 170.77 137.10
  Q 185.43 152.19 198.84 164.08
  Q 200.44 165.50 202.26 166.65
  Q 202.71 166.94 203.12 166.59
  Q 223.60 149.40 240.33 129.95
  Q 251.11 117.42 254.93 101.79
  Q 255.10 101.11 254.40 101.10
  Q 250.75 101.07 247.27 98.49
  A 0.66 0.66 0.0 0 1 247.00 97.92
  Q 247.17 93.92 246.16 90.38
  C 245.03 86.44 244.34 82.54 242.74 78.76
  Q 241.38 75.56 238.17 71.85
  C 236.55 69.97 234.27 69.14 233.25 66.81
  C 232.48 65.04 230.97 63.07 229.23 62.20
  Q 225.80 60.49 222.28 58.62
  C 220.01 57.40 217.80 57.10 215.49 56.25
  Q 212.98 55.32 210.32 55.07
  Q 201.15 54.20 189.82 57.62
  Q 188.41 58.04 189.43 59.10
  L 191.30 61.02
  Q 192.52 62.27 194.23 61.92
  Q 203.14 60.13 212.25 61.65
  C 224.46 63.69 232.01 71.80 238.15 82.03
  Q 238.79 83.09 239.01 84.27
  C 239.82 88.51 241.40 92.67 240.93 97.03
  A 1.30 1.28 73.8 0 1 240.47 97.88
  C 236.66 101.04 232.96 101.56 228.37 100.47
  Q 224.75 99.61 223.71 103.91
  Q 222.60 108.48 218.83 112.00
  Q 218.03 112.75 217.11 113.24
  C 215.25 114.24 214.39 115.91 212.33 116.71
  C 204.92 119.59 196.98 119.74 190.99 114.66
  Q 189.79 113.65 188.35 112.99
  C 185.59 111.74 185.19 108.83 183.90 106.45
  C 179.42 98.19 182.25 89.87 186.03 81.95
  A 1.56 1.54 10.7 0 1 187.33 81.08
  C 190.38 80.90 190.49 80.48 192.78 78.80
  Q 193.66 78.15 194.73 77.72
  Q 204.32 73.90 213.14 78.60
  C 216.41 80.35 218.73 83.26 221.34 85.81
  C 222.60 87.04 224.05 87.09 225.50 87.91
  Q 226.13 88.27 226.25 87.55
  Q 226.46 86.28 225.73 85.35
  Q 223.31 82.31 220.27 78.95
  C 218.77 77.29 216.81 76.77 215.06 75.50
  C 212.12 73.38 207.24 72.63 203.94 73.11
  Q 201.52 73.46 198.72 73.94
  C 195.49 74.49 192.98 75.98 189.95 76.91
  Q 189.42 77.07 188.92 76.84
  C 186.47 75.70 184.23 74.13 183.03 71.60
  Q 181.80 69.01 179.31 66.71
  C 178.63 66.08 178.19 65.31 177.93 64.41
  Q 177.15 61.68 175.84 64.17
  C 175.43 64.94 174.52 65.32 173.90 66.08
  Q 172.32 68.03 171.29 69.87
  Q 161.44 87.49 169.63 105.52
  C 173.27 113.53 180.76 119.98 188.79 123.04
  C 194.17 125.09 198.45 126.60 204.53 126.11
  C 218.55 124.96 228.39 117.70 235.16 105.65
  Q 235.38 105.26 236.30 102.61
  Q 237.05 100.45 239.14 100.44
  Z"
/>
<path fill="#f1b722" d="
  M 266.37 30.73
  Q 270.57 34.73 274.79 38.77
  Q 276.25 40.18 276.90 41.92
  C 277.50 43.51 279.05 44.38 280.00 45.86
  Q 281.46 48.16 282.69 50.27
  Q 284.28 53.01 281.14 53.42
  Q 279.14 53.68 277.31 53.92
  Q 274.46 54.29 272.68 52.03
  C 270.78 49.61 269.20 46.84 267.07 44.66
  C 265.27 42.81 263.98 40.42 261.91 38.95
  C 259.23 37.04 257.62 34.41 254.77 32.54
  C 252.00 30.72 249.61 28.43 246.70 26.85
  Q 236.94 21.51 227.57 18.59
  Q 224.38 17.59 215.26 16.22
  Q 197.78 13.58 181.19 18.65
  Q 178.54 19.46 170.57 22.50
  C 167.94 23.50 165.88 24.87 163.80 26.61
  A 0.98 0.98 0.0 0 0 163.65 27.95
  L 167.49 33.04
  A 2.11 2.11 0.0 0 0 170.07 33.68
  Q 174.01 31.83 178.01 30.08
  Q 181.75 28.45 187.50 27.62
  C 188.55 27.47 189.31 26.67 190.37 26.46
  Q 203.37 23.96 213.53 25.57
  Q 219.11 26.45 225.61 28.13
  Q 232.21 29.83 237.57 32.86
  C 243.29 36.09 248.88 39.63 253.46 44.05
  Q 255.63 46.15 257.85 48.17
  Q 259.53 49.70 260.90 51.82
  Q 262.29 53.96 263.96 55.80
  Q 265.45 57.46 266.63 59.69
  Q 271.38 68.69 273.84 77.31
  Q 276.84 87.82 276.52 98.29
  Q 276.49 99.30 275.49 99.53
  Q 272.98 100.11 270.14 99.91
  Q 259.80 99.18 250.34 98.76
  A 1.61 1.60 0.8 0 1 248.81 97.19
  C 248.54 78.43 237.71 62.55 220.29 55.72
  C 210.52 51.89 198.07 52.40 188.18 55.95
  A 2.00 1.97 -77.7 0 0 187.40 56.46
  Q 186.31 57.62 187.17 58.82
  C 188.43 60.58 191.02 65.07 193.61 64.34
  Q 203.51 61.55 213.90 63.87
  Q 221.18 65.50 228.43 72.48
  Q 238.64 82.30 238.96 96.47
  Q 239.00 98.48 236.99 98.36
  L 224.77 97.65
  A 2.03 2.03 0.0 0 0 222.64 99.38
  Q 221.56 106.91 216.89 111.28
  Q 211.80 116.04 205.35 116.70
  Q 195.93 117.65 188.84 110.88
  Q 187.50 109.61 186.77 108.25
  C 186.05 106.91 185.02 105.68 184.59 104.22
  Q 181.66 94.33 186.39 85.92
  C 187.88 83.28 190.02 82.44 192.19 80.62
  Q 193.40 79.60 194.88 79.01
  Q 205.76 74.62 214.89 81.23
  Q 216.50 82.39 218.01 84.26
  C 220.74 87.62 221.97 89.53 226.99 88.89
  Q 228.86 88.65 228.04 86.95
  Q 226.32 83.37 222.72 79.26
  Q 220.11 76.28 216.15 74.36
  Q 203.97 68.48 191.15 75.35
  Q 189.74 76.10 188.12 74.62
  C 185.83 72.51 184.74 69.98 182.81 67.62
  Q 178.06 61.83 173.54 55.51
  Q 172.80 54.47 173.85 53.75
  Q 188.10 43.94 205.33 43.74
  Q 214.26 43.63 224.50 47.66
  Q 242.64 54.79 252.62 73.82
  Q 255.92 80.12 256.76 87.48
  Q 257.09 90.44 260.07 90.38
  L 265.22 90.28
  Q 267.22 90.25 266.86 88.28
  Q 264.76 76.84 261.45 70.08
  Q 253.02 52.87 237.14 43.12
  C 233.82 41.08 230.39 39.90 227.03 38.20
  C 223.47 36.40 219.54 35.94 215.60 35.05
  Q 213.30 34.53 210.87 34.44
  C 203.32 34.15 196.21 34.07 188.69 36.17
  Q 177.50 39.28 167.60 45.94
  A 1.05 1.05 0.0 0 1 166.18 45.71
  L 151.28 26.27
  A 1.98 1.97 53.8 0 1 151.71 23.45
  Q 158.13 18.94 164.96 15.34
  Q 167.35 14.08 170.03 13.28
  C 172.41 12.56 174.59 11.32 176.96 10.60
  Q 190.81 6.41 206.01 6.50
  Q 239.15 6.68 264.34 28.67
  C 265.10 29.34 265.64 30.04 266.37 30.73
  Z
  M 216.01 96.96
  A 12.98 12.98 0.0 0 0 203.03 83.98
  A 12.98 12.98 0.0 0 0 190.05 96.96
  A 12.98 12.98 0.0 0 0 203.03 109.94
  A 12.98 12.98 0.0 0 0 216.01 96.96
  Z"
/>
<path fill="#1d4870" d="
  M 137.84 93.27
  L 137.97 84.87
  Q 141.11 58.99 158.88 42.13
  Q 159.95 41.12 160.68 42.39
  Q 162.34 45.25 164.59 47.65
  Q 165.40 48.52 164.53 49.32
  C 153.02 59.85 147.20 75.23 147.33 90.74
  C 147.46 106.63 156.04 121.87 166.38 133.66
  Q 172.30 140.41 178.65 146.61
  Q 189.51 157.20 201.55 168.01
  A 1.27 1.27 0.0 0 0 203.21 168.03
  Q 223.14 151.11 239.56 132.36
  Q 251.71 118.49 256.28 101.65
  Q 256.38 101.28 256.76 101.28
  L 265.24 101.24
  Q 265.60 101.24 265.51 101.59
  Q 263.35 110.00 262.03 112.98
  Q 256.10 126.35 246.06 138.33
  Q 235.73 150.67 222.88 162.59
  Q 213.20 171.57 203.64 180.68
  A 1.62 1.61 43.8 0 1 201.45 180.72
  Q 199.35 178.87 197.33 176.89
  Q 182.61 162.51 168.56 148.18
  Q 161.87 141.36 155.66 134.11
  Q 145.14 121.81 140.45 106.76
  Q 139.25 102.88 137.84 93.27
  Z"
/>
<path fill="#1d4870" d="
  M 239.14 100.44
  Q 239.16 100.75 239.18 101.06
  L 246.21 101.20
  A 0.89 0.88 8.8 0 1 247.04 102.33
  C 243.15 115.71 233.70 126.09 221.10 131.92
  Q 212.38 135.96 201.61 135.96
  Q 183.30 135.97 169.90 122.52
  Q 165.01 117.62 161.39 110.84
  Q 158.06 104.64 156.87 98.64
  Q 152.17 75.10 169.19 56.80
  Q 170.34 55.58 171.31 56.94
  L 174.87 61.92
  Q 175.65 63.01 174.73 63.98
  C 165.62 73.60 163.91 87.25 166.62 99.93
  C 169.42 113.07 182.09 123.07 194.34 125.94
  C 209.74 129.53 226.20 122.46 234.41 109.00
  Q 234.51 108.82 236.52 104.60
  Q 237.52 102.51 239.14 100.44
  Z"
/>
<path fill="#f6f1d3" d="
  M 216.01 96.96
  A 12.98 12.98 0.0 0 1 203.03 109.94
  A 12.98 12.98 0.0 0 1 190.05 96.96
  A 12.98 12.98 0.0 0 1 203.03 83.98
  A 12.98 12.98 0.0 0 1 216.01 96.96
  Z
  M 211.6853 103.3942
  A 9.96 9.96 0.0 0 0 210.6783 89.3447
  L 209.2572 88.1138
  A 9.96 9.96 0.0 0 0 195.2077 89.1208
  L 194.0947 90.4058
  A 9.96 9.96 0.0 0 0 195.1017 104.4553
  L 196.5228 105.6862
  A 9.96 9.96 0.0 0 0 210.5723 104.6792
  L 211.6853 103.3942
  Z"
/>
<path fill="#d5c4c6" d="
  M 64.09 239.23
  Q 64.64 239.34 64.69 240.23
  C 65.97 260.28 84.51 265.61 101.22 262.03
  Q 111.54 259.82 116.61 251.52
  Q 119.19 247.29 120.01 240.32
  Q 120.76 233.84 120.53 227.76
  Q 120.40 224.22 120.38 220.74
  Q 120.25 199.80 120.56 179.72
  A 0.83 0.83 0.0 0 0 119.27 179.02
  L 100.89 191.23
  A 2.84 2.83 -17.1 0 0 99.62 193.61
  Q 99.77 215.17 99.41 236.93
  C 99.37 239.03 98.93 241.01 98.61 243.06
  C 97.91 247.58 92.64 251.05 88.72 247.79
  C 85.56 245.15 85.11 239.38 85.09 235.49
  Q 85.03 214.38 85.07 193.50
  A 1.30 1.30 0.0 0 0 83.75 192.19
  Q 74.37 192.30 64.75 192.25
  Q 64.48 192.25 63.73 192.77
  Q 63.40 192.66 63.35 192.49
  A 1.21 1.10 -7.7 0 1 64.52 191.09
  Q 74.32 190.90 83.62 191.04
  A 2.46 2.46 0.0 0 1 86.05 193.51
  Q 85.97 213.24 86.02 238.28
  Q 86.03 242.18 88.45 245.85
  C 91.40 250.31 96.25 247.30 97.52 243.44
  Q 99.03 238.83 99.03 232.65
  Q 99.01 212.21 99.04 192.08
  Q 99.05 191.61 99.34 191.25
  C 101.01 189.17 104.01 187.93 106.30 186.35
  Q 113.33 181.47 120.41 177.28
  Q 120.90 176.99 120.93 177.56
  Q 121.10 181.24 121.04 184.82
  Q 120.61 212.24 120.97 238.66
  C 121.00 241.47 120.70 244.74 119.54 247.29
  Q 118.75 249.03 117.99 250.93
  C 115.41 257.40 108.53 261.55 101.73 262.71
  Q 99.01 263.17 96.08 263.61
  Q 93.17 264.04 90.42 263.79
  C 80.62 262.90 70.91 260.98 66.42 251.11
  Q 63.93 245.63 64.09 239.23
  Z"
/>
<path fill="#d5c4c6" d="
  M 318.75 217.56
  Q 319.75 220.39 318.70 222.91
  Q 318.47 223.48 318.09 222.99
  L 285.07 179.97
  Q 283.60 178.05 283.62 180.47
  Q 283.66 186.26 283.68 191.25
  Q 283.87 225.87 283.76 261.68
  A 1.23 1.22 0.5 0 0 284.98 262.91
  L 303.52 263.01
  A 1.29 1.28 0.0 0 0 304.81 261.73
  L 304.74 232.94
  Q 304.73 231.28 305.85 232.51
  Q 308.25 235.12 310.64 238.31
  Q 322.71 254.36 337.22 272.88
  Q 338.20 274.12 338.99 275.59
  Q 339.17 275.93 339.55 275.97
  Q 339.87 276.01 340.12 275.67
  A 0.66 0.65 63.0 0 0 340.24 275.29
  L 340.08 193.53
  A 1.25 1.25 0.0 0 0 338.87 192.28
  L 318.94 191.66
  Q 329.62 190.42 338.75 191.00
  C 340.04 191.08 340.97 192.14 340.97 193.38
  Q 341.07 236.28 340.93 276.12
  Q 340.93 277.54 339.64 276.94
  Q 338.31 276.32 337.62 275.03
  Q 336.43 272.80 334.66 271.09
  A 2.21 2.14 12.6 0 1 334.14 270.30
  L 333.71 269.22
  Q 333.46 268.58 332.85 268.91
  L 331.51 269.65
  Q 330.61 270.14 331.01 269.19
  Q 331.27 268.59 331.63 268.07
  Q 332.03 267.51 331.51 267.07
  C 328.84 264.83 327.65 261.95 325.59 259.26
  Q 321.90 254.44 318.38 250.07
  C 315.71 246.75 313.60 243.06 310.58 240.01
  C 309.10 238.52 308.40 236.47 306.70 235.15
  Q 306.00 234.60 306.00 235.49
  L 306.00 261.75
  A 2.25 2.25 0.0 0 1 303.75 264.00
  L 285.22 264.00
  Q 283.39 264.00 283.17 262.17
  Q 282.86 259.57 282.88 257.24
  Q 283.33 220.39 282.91 183.91
  Q 282.87 181.00 283.34 178.17
  A 0.46 0.46 0.0 0 1 284.09 177.89
  Q 286.69 180.09 288.74 183.00
  C 292.31 188.09 296.34 192.75 299.99 197.84
  C 300.99 199.22 302.23 200.40 303.25 201.78
  Q 309.62 210.41 316.61 219.26
  Q 317.65 220.58 317.92 218.91
  Q 317.99 218.50 318.75 217.56
  Z"
/>
<path fill="#1d4870" d="
  M 64.09 239.23
  L 63.73 192.77
  Q 64.48 192.25 64.75 192.25
  Q 74.37 192.30 83.75 192.19
  A 1.30 1.30 0.0 0 1 85.07 193.50
  Q 85.03 214.38 85.09 235.49
  C 85.11 239.38 85.56 245.15 88.72 247.79
  C 92.64 251.05 97.91 247.58 98.61 243.06
  C 98.93 241.01 99.37 239.03 99.41 236.93
  Q 99.77 215.17 99.62 193.61
  A 2.84 2.83 -17.1 0 1 100.89 191.23
  L 119.27 179.02
  A 0.83 0.83 0.0 0 1 120.56 179.72
  Q 120.25 199.80 120.38 220.74
  Q 120.40 224.22 120.53 227.76
  Q 120.76 233.84 120.01 240.32
  Q 119.19 247.29 116.61 251.52
  Q 111.54 259.82 101.22 262.03
  C 84.51 265.61 65.97 260.28 64.69 240.23
  Q 64.64 239.34 64.09 239.23
  Z"
/>
<path fill="#d5c4c6" d="
  M 354.8787 182.2049
  A 6.93 6.79 -33.8 0 1 352.8972 191.7024
  A 6.93 6.79 -33.8 0 1 343.3613 189.9151
  A 6.93 6.79 -33.8 0 1 345.3428 180.4176
  A 6.93 6.79 -33.8 0 1 354.8787 182.2049
  Z
  M 351.3614 190.9550
  A 5.24 4.75 67.9 0 0 353.7910 184.3129
  A 5.24 4.75 67.9 0 0 347.4186 181.2450
  A 5.24 4.75 67.9 0 0 344.9890 187.8871
  A 5.24 4.75 67.9 0 0 351.3614 190.9550
  Z"
/>
<path fill="#1d4870" d="
  M 318.75 217.56
  L 318.68 212.18
  Q 319.45 208.15 318.67 204.21
  L 318.94 191.66
  L 338.87 192.28
  A 1.25 1.25 0.0 0 1 340.08 193.53
  L 340.24 275.29
  A 0.66 0.65 63.0 0 1 340.12 275.67
  Q 339.87 276.01 339.55 275.97
  Q 339.17 275.93 338.99 275.59
  Q 338.20 274.12 337.22 272.88
  Q 322.71 254.36 310.64 238.31
  Q 308.25 235.12 305.85 232.51
  Q 304.73 231.28 304.74 232.94
  L 304.81 261.73
  A 1.29 1.28 0.0 0 1 303.52 263.01
  L 284.98 262.91
  A 1.23 1.22 0.5 0 1 283.76 261.68
  Q 283.87 225.87 283.68 191.25
  Q 283.66 186.26 283.62 180.47
  Q 283.60 178.05 285.07 179.97
  L 318.09 222.99
  Q 318.47 223.48 318.70 222.91
  Q 319.75 220.39 318.75 217.56
  Z"
/>
<path fill="#d5c4c6" d="
  M 349.17 187.50
  Q 349.00 187.74 348.99 188.04
  Q 348.98 188.74 348.28 188.83
  L 347.89 188.89
  A 0.65 0.65 0.0 0 1 347.16 188.27
  L 347.05 184.47
  Q 347.01 182.94 348.54 182.98
  L 350.55 183.04
  Q 352.02 183.08 351.97 184.55
  L 351.85 188.06
  A 0.79 0.78 3.8 0 1 350.99 188.81
  Q 350.04 188.72 349.91 187.68
  Q 349.78 186.66 349.17 187.50
  Z"
/>
<path fill="#f6f1d3" d="
  M 205.48 270.02
  Q 201.21 272.54 196.55 276.62
  Q 194.02 278.84 191.32 277.65
  C 188.75 276.51 189.06 273.25 188.97 270.93
  Q 188.68 262.62 189.55 255.62
  C 189.89 252.83 189.30 250.35 189.61 247.64
  Q 190.54 239.40 189.52 231.48
  Q 189.26 229.47 189.41 227.48
  C 189.55 225.52 188.98 223.53 188.99 221.56
  Q 189.11 208.43 189.01 195.38
  C 188.98 190.68 194.65 188.78 198.41 189.42
  C 203.45 190.28 209.85 189.18 214.31 191.71
  A 0.61 0.59 -67.5 0 1 214.59 192.41
  Q 214.25 193.55 214.38 194.72
  Q 214.91 199.14 214.51 203.05
  C 214.02 207.87 215.05 212.50 214.94 217.30
  C 214.71 226.56 214.81 235.65 214.21 244.81
  Q 213.76 251.56 214.08 258.99
  Q 214.26 263.16 211.91 265.28
  Q 208.89 268.01 205.48 270.02
  Z
  M 199.25 271.64
  Q 204.67 267.92 210.71 263.67
  Q 211.72 262.96 212.14 261.70
  Q 212.64 260.19 212.66 258.71
  Q 212.84 237.97 212.65 206.93
  Q 212.61 200.72 212.73 193.18
  A 0.84 0.84 0.0 0 0 211.93 192.33
  Q 202.10 191.79 192.86 192.14
  A 1.28 1.27 88.4 0 0 191.64 193.44
  C 191.67 195.60 191.39 197.73 191.40 199.90
  Q 191.71 237.65 191.45 275.42
  A 0.67 0.67 0.0 0 0 192.31 276.07
  Q 194.76 275.33 196.45 273.82
  Q 197.74 272.67 199.25 271.64
  Z"
/>
<path fill="#d5c4c6" d="
  M 57.18 193.05
  Q 55.87 192.27 55.25 192.26
  Q 35.25 192.24 15.25 192.25
  Q 14.78 192.25 14.01 193.00
  Q 13.55 193.04 13.29 192.87
  Q 12.73 192.52 13.29 192.17
  Q 13.77 191.88 14.10 191.46
  Q 14.44 191.02 14.99 191.02
  Q 34.03 190.94 54.96 191.04
  Q 56.17 191.04 57.18 191.58
  Q 58.01 192.02 57.18 193.05
  Z"
/>
<path fill="#d5c4c6" d="
  M 219.15 222.93
  Q 219.28 218.95 219.60 215.23
  Q 220.03 210.26 221.07 207.28
  C 222.61 202.84 225.58 197.83 230.01 195.68
  Q 237.97 191.82 247.37 191.10
  Q 249.00 190.98 253.25 191.78
  Q 254.00 191.92 254.76 191.66
  Q 255.24 191.49 255.73 191.65
  C 260.28 193.06 265.96 194.54 269.31 197.86
  C 275.82 204.29 277.32 210.97 277.06 220.01
  Q 276.83 227.98 277.01 235.97
  C 277.17 243.43 275.54 250.94 270.78 256.05
  Q 268.26 258.76 264.14 260.86
  Q 261.91 261.99 259.13 262.38
  C 254.95 262.97 250.61 264.28 246.46 263.79
  C 237.34 262.72 228.50 261.65 223.37 252.75
  Q 219.46 245.97 219.23 237.62
  Q 218.97 228.46 219.15 222.93
  Z
  M 276.3579 216.6473
  A 24.10 24.10 0.0 0 0 252.3844 192.4214
  L 244.3845 192.3795
  A 24.10 24.10 0.0 0 0 220.1587 216.3530
  L 220.0421 238.6127
  A 24.10 24.10 0.0 0 0 244.0156 262.8386
  L 252.0155 262.8805
  A 24.10 24.10 0.0 0 0 276.2413 238.9070
  L 276.3579 216.6473
  Z"
/>
<path fill="#d5c4c6" d="
  M 158.50 263.61
  C 155.26 264.24 151.55 263.39 148.30 263.07
  Q 143.33 262.57 138.02 260.54
  C 131.64 258.11 125.55 249.51 127.38 242.02
  Q 127.50 241.51 128.01 241.39
  C 129.35 241.07 130.69 240.78 132.07 240.82
  Q 139.77 241.05 147.29 241.00
  C 150.00 240.99 150.50 244.54 151.79 246.39
  C 153.59 248.97 157.33 248.20 159.51 246.70
  A 0.48 0.47 -27.3 0 0 159.69 246.15
  Q 159.64 245.98 159.68 245.81
  Q 159.75 245.55 159.96 245.72
  Q 160.69 246.31 161.36 245.74
  Q 161.73 245.43 161.85 244.94
  Q 162.95 240.70 160.00 236.70
  Q 158.73 234.99 156.96 235.01
  Q 147.01 235.13 141.19 233.53
  Q 138.31 232.74 134.67 230.45
  C 128.35 226.48 127.01 218.84 127.01 211.99
  C 127.02 203.59 131.31 196.99 139.27 194.20
  Q 149.24 190.69 158.12 191.40
  C 162.96 191.78 169.13 192.22 173.35 194.16
  C 176.63 195.67 180.50 198.17 182.34 201.48
  Q 185.47 207.12 184.72 213.31
  A 0.96 0.95 3.4 0 1 183.77 214.15
  L 164.54 213.98
  Q 162.85 213.97 162.32 212.37
  Q 161.50 209.90 159.83 207.75
  A 1.71 1.71 0.0 0 0 158.87 207.13
  C 153.68 205.93 149.17 208.62 150.07 214.50
  C 150.78 219.23 154.27 220.11 158.30 220.08
  Q 162.10 220.06 167.37 220.86
  Q 178.97 222.64 183.14 231.83
  C 186.71 239.71 185.52 251.41 179.11 257.60
  Q 176.81 259.82 173.01 260.98
  Q 167.01 262.81 162.37 263.10
  Q 160.45 263.23 158.50 263.61
  Z
  M 161.37 262.88
  Q 169.05 262.22 175.20 258.92
  C 184.33 254.02 185.92 241.57 182.42 232.65
  C 178.65 223.04 165.87 220.37 156.32 220.64
  C 151.77 220.77 148.80 218.28 148.77 213.53
  Q 148.73 206.96 154.56 206.22
  Q 161.88 205.29 163.28 212.02
  A 1.55 1.54 83.8 0 0 164.80 213.25
  L 183.09 213.15
  A 1.18 1.17 87.3 0 0 184.25 211.87
  Q 182.95 197.29 169.11 193.71
  Q 159.64 191.26 147.35 192.84
  C 137.78 194.06 129.40 199.51 128.29 209.80
  Q 127.72 215.01 128.56 219.02
  C 131.29 232.19 145.74 234.44 157.09 234.67
  C 162.24 234.78 163.73 239.08 163.25 243.59
  C 162.48 250.95 149.60 251.29 148.71 242.92
  A 1.16 1.15 -3.3 0 0 147.55 241.89
  L 128.69 242.07
  Q 128.05 242.08 128.05 242.72
  C 128.09 252.47 133.88 258.66 142.72 261.25
  Q 151.29 263.75 161.37 262.88
  Z"
/>
<path fill="#f1b722" d="
  M 196.45 273.82
  Q 194.76 275.33 192.31 276.07
  A 0.67 0.67 0.0 0 1 191.45 275.42
  Q 191.71 237.65 191.40 199.90
  C 191.39 197.73 191.67 195.60 191.64 193.44
  A 1.28 1.27 88.4 0 1 192.86 192.14
  Q 202.10 191.79 211.93 192.33
  A 0.84 0.84 0.0 0 1 212.73 193.18
  Q 212.61 200.72 212.65 206.93
  Q 212.84 237.97 212.66 258.71
  Q 212.64 260.19 212.14 261.70
  Q 211.72 262.96 210.71 263.67
  Q 204.67 267.92 199.25 271.64
  Q 197.74 272.67 196.45 273.82
  Z"
/>
<path fill="#1d4870" d="
  M 57.18 193.05
  L 57.09 206.49
  Q 44.45 205.64 29.40 206.18
  Q 28.51 206.21 29.12 206.85
  L 34.68 212.75
  A 2.63 2.58 -66.8 0 1 35.39 214.57
  L 35.27 233.31
  A 1.72 1.72 0.0 0 0 37.04 235.04
  L 56.84 234.49
  L 57.01 248.58
  A 0.44 0.43 -90.0 0 1 56.58 249.02
  L 35.66 248.98
  L 35.36 261.99
  A 1.04 1.04 0.0 0 1 34.32 263.00
  Q 25.35 262.93 16.00 263.05
  Q 14.90 263.06 14.37 262.21
  L 14.38 193.73
  Q 14.38 193.64 14.30 193.61
  Q 14.21 193.57 14.05 193.54
  L 14.01 193.00
  Q 14.78 192.25 15.25 192.25
  Q 35.25 192.24 55.25 192.26
  Q 55.87 192.27 57.18 193.05
  Z"
/>
<path fill="#1d4870" d="
  M 161.37 262.88
  Q 151.29 263.75 142.72 261.25
  C 133.88 258.66 128.09 252.47 128.05 242.72
  Q 128.05 242.08 128.69 242.07
  L 147.55 241.89
  A 1.16 1.15 -3.3 0 1 148.71 242.92
  C 149.60 251.29 162.48 250.95 163.25 243.59
  C 163.73 239.08 162.24 234.78 157.09 234.67
  C 145.74 234.44 131.29 232.19 128.56 219.02
  Q 127.72 215.01 128.29 209.80
  C 129.40 199.51 137.78 194.06 147.35 192.84
  Q 159.64 191.26 169.11 193.71
  Q 182.95 197.29 184.25 211.87
  A 1.18 1.17 87.3 0 1 183.09 213.15
  L 164.80 213.25
  A 1.55 1.54 83.8 0 1 163.28 212.02
  Q 161.88 205.29 154.56 206.22
  Q 148.73 206.96 148.77 213.53
  C 148.80 218.28 151.77 220.77 156.32 220.64
  C 165.87 220.37 178.65 223.04 182.42 232.65
  C 185.92 241.57 184.33 254.02 175.20 258.92
  Q 169.05 262.22 161.37 262.88
  Z"
/>
<path fill="#1d4870" d="
  M 276.2413 238.9070
  A 24.10 24.10 0.0 0 1 252.0155 262.8805
  L 244.0156 262.8386
  A 24.10 24.10 0.0 0 1 220.0421 238.6127
  L 220.1587 216.3530
  A 24.10 24.10 0.0 0 1 244.3845 192.3795
  L 252.3844 192.4214
  A 24.10 24.10 0.0 0 1 276.3579 216.6473
  L 276.2413 238.9070
  Z
  M 247.93 206.09
  C 243.39 206.04 241.51 211.47 241.24 215.00
  Q 240.55 223.81 241.09 237.21
  C 241.26 241.19 241.54 244.91 244.21 247.46
  C 246.62 249.77 250.53 249.46 252.65 246.88
  C 254.83 244.22 255.28 241.02 255.38 237.65
  Q 255.71 226.90 255.31 216.51
  C 255.21 213.72 254.44 210.96 253.05 208.69
  Q 251.49 206.12 247.93 206.09
  Z"
/>
<path fill="#d5c4c6" d="
  M 14.05 193.54
  Q 14.21 193.57 14.30 193.61
  Q 14.38 193.64 14.38 193.73
  L 14.37 262.21
  Q 14.30 262.48 14.04 262.29
  L 14.05 193.54
  Z"
/>
<path fill="#d5c4c6" d="
  M 318.67 204.21
  Q 319.45 208.15 318.68 212.18
  Q 317.36 208.58 318.67 204.21
  Z"
/>
<path fill="#f6f1d3" d="
  M 57.09 206.49
  L 32.65 207.01
  A 0.94 0.94 0.0 0 0 32.00 208.61
  L 35.65 212.27
  Q 36.00 212.62 36.00 213.12
  L 35.98 233.46
  Q 35.98 233.94 36.47 233.96
  L 56.84 234.49
  L 37.04 235.04
  A 1.72 1.72 0.0 0 1 35.27 233.31
  L 35.39 214.57
  A 2.63 2.58 -66.8 0 0 34.68 212.75
  L 29.12 206.85
  Q 28.51 206.21 29.40 206.18
  Q 44.45 205.64 57.09 206.49
  Z"
/>
<path fill="#d5c4c6" d="
  M 247.93 206.09
  Q 251.49 206.12 253.05 208.69
  C 254.44 210.96 255.21 213.72 255.31 216.51
  Q 255.71 226.90 255.38 237.65
  C 255.28 241.02 254.83 244.22 252.65 246.88
  C 250.53 249.46 246.62 249.77 244.21 247.46
  C 241.54 244.91 241.26 241.19 241.09 237.21
  Q 240.55 223.81 241.24 215.00
  C 241.51 211.47 243.39 206.04 247.93 206.09
  Z
  M 254.12 225.12
  Q 254.31 220.73 253.76 213.00
  Q 253.71 212.22 252.76 209.93
  Q 252.56 209.44 252.13 209.13
  Q 251.24 208.49 250.75 207.46
  Q 250.55 207.04 250.10 206.96
  C 243.75 205.88 242.19 213.21 242.09 217.86
  Q 241.85 228.87 242.07 239.33
  C 242.16 243.38 244.85 249.70 249.97 247.61
  C 254.52 245.75 254.56 236.68 254.24 232.93
  Q 253.94 229.38 254.12 225.12
  Z"
/>
<path fill="#f6f1d3" d="
  M 35.66 248.98
  L 35.94 263.37
  Q 35.96 263.99 35.33 263.99
  L 14.66 263.99
  Q 14.03 263.99 14.03 263.37
  L 14.04 262.29
  Q 14.30 262.48 14.37 262.21
  Q 14.90 263.06 16.00 263.05
  Q 25.35 262.93 34.32 263.00
  A 1.04 1.04 0.0 0 0 35.36 261.99
  L 35.66 248.98
  Z"
/>
<path fill="#878887" d="
  M 93.64 291.67
  L 94.78 289.60
  A 0.82 0.81 39.3 0 1 96.12 289.47
  C 97.50 291.10 97.52 294.90 94.68 294.97
  Q 92.74 295.03 90.54 295.03
  C 83.63 295.04 83.23 283.49 89.12 281.00
  C 92.11 279.74 98.30 280.50 96.85 285.29
  A 1.28 1.28 0.0 0 1 94.54 285.59
  Q 92.86 282.88 89.91 284.48
  Q 89.43 284.74 89.30 285.27
  C 88.61 288.14 88.22 292.62 92.81 292.21
  Q 93.37 292.16 93.64 291.67
  Z"
/>
<path fill="#878887" d="
  M 181.71 290.22
  L 179.69 289.76
  Q 178.33 289.44 179.15 288.31
  L 179.49 287.83
  Q 180.27 286.76 181.56 287.07
  Q 183.49 287.53 184.94 286.71
  Q 185.35 286.47 185.50 286.92
  C 187.88 293.61 183.43 296.22 177.47 294.87
  Q 172.86 293.82 172.66 289.28
  C 172.55 286.64 172.73 282.52 175.61 281.23
  C 179.29 279.58 184.84 280.00 185.59 284.79
  A 1.02 1.01 9.1 0 1 184.12 285.85
  Q 182.23 284.88 180.04 284.30
  C 174.41 282.82 175.43 288.69 177.12 291.39
  Q 177.45 291.91 178.06 291.98
  C 179.39 292.15 181.48 292.67 182.14 291.07
  A 0.63 0.62 -72.3 0 0 181.71 290.22
  Z"
/>
<path fill="#878887" d="
  M 222.86 285.52
  L 222.54 285.31
  Q 221.74 284.81 220.89 284.41
  Q 217.05 282.62 216.27 284.10
  Q 215.83 284.93 216.72 285.25
  Q 220.23 286.51 221.50 286.72
  Q 222.21 286.84 222.10 286.14
  Q 224.83 289.17 223.94 293.32
  A 2.02 2.01 -85.0 0 1 222.05 294.91
  C 219.42 295.01 211.02 296.43 213.18 290.55
  A 1.24 1.23 34.3 0 1 215.26 290.16
  Q 216.95 292.04 219.21 292.16
  Q 219.98 292.20 220.02 291.43
  Q 220.12 289.57 218.15 289.15
  Q 215.92 288.67 213.96 287.52
  Q 213.48 287.24 213.29 286.71
  C 212.56 284.69 212.68 281.89 215.09 280.94
  Q 220.43 278.86 223.67 283.29
  Q 224.73 284.73 222.86 285.52
  Z"
/>
<path fill="#878887" d="
  M 269.63 283.26
  Q 268.51 284.56 267.61 284.84
  Q 267.07 285.01 266.68 284.59
  Q 265.35 283.12 263.92 283.35
  Q 259.73 284.02 263.72 285.60
  Q 264.46 285.89 267.15 286.22
  Q 269.86 287.74 269.98 289.75
  C 270.33 295.33 265.94 295.44 261.74 295.00
  C 259.31 294.75 258.32 292.69 258.21 290.52
  Q 258.18 289.91 258.78 289.98
  L 260.86 290.20
  Q 261.41 290.26 261.70 290.73
  Q 262.96 292.80 265.45 292.00
  A 0.94 0.94 0.0 0 0 265.62 290.29
  Q 263.62 289.16 261.16 288.68
  Q 258.80 288.21 258.94 285.80
  C 259.04 284.13 258.65 282.27 260.52 281.39
  Q 266.01 278.81 269.63 283.26
  Z"
/>
<path fill="#d5c4c6" d="
  M 337.19 280.74
  L 335.30 282.63
  Q 335.09 281.33 335.66 280.60
  Q 335.99 280.18 336.50 280.32
  Q 336.90 280.42 337.19 280.74
  Z"
/>
<path fill="#878887" d="
  M 117.30 286.90
  C 117.97 287.71 118.98 288.36 119.51 289.23
  Q 120.72 291.26 121.72 293.47
  Q 122.41 294.97 120.75 295.00
  L 119.56 295.02
  A 2.53 2.52 76.8 0 1 117.23 293.57
  L 115.90 290.73
  A 1.31 1.31 0.0 0 0 113.54 290.70
  Q 112.78 292.22 113.06 293.90
  A 0.96 0.95 -7.7 0 1 112.22 295.00
  Q 110.95 295.14 109.68 294.32
  Q 109.17 294.00 109.40 293.45
  L 109.77 292.59
  Q 109.97 292.11 109.97 291.58
  L 110.04 282.01
  Q 110.05 280.34 111.63 280.87
  L 111.99 280.98
  Q 113.00 281.32 113.00 282.39
  Q 112.99 283.81 113.03 285.00
  Q 113.10 286.91 113.87 285.16
  Q 114.21 284.39 114.99 284.09
  Q 115.53 283.88 115.81 283.37
  Q 117.31 280.67 121.36 281.02
  Q 122.00 281.08 121.71 281.66
  Q 120.28 284.44 117.39 286.28
  Q 116.99 286.53 117.30 286.90
  Z"
/>
<path fill="#878887" d="
  M 133.04 293.23
  L 133.19 282.61
  A 1.15 1.15 0.0 0 1 133.88 281.57
  L 135.22 280.99
  A 1.15 1.15 0.0 0 1 136.83 282.04
  L 136.85 294.07
  A 1.15 1.15 0.0 0 1 135.15 295.08
  L 133.64 294.25
  A 1.15 1.15 0.0 0 1 133.04 293.23
  Z"
/>
<path fill="#878887" d="
  M 337.19 280.74
  Q 338.59 280.77 339.59 281.37
  Q 340.00 281.62 340.00 282.09
  L 339.97 293.85
  Q 339.96 295.03 338.78 295.05
  L 338.28 295.06
  Q 337.12 295.08 336.96 293.93
  Q 336.71 292.12 337.08 290.30
  Q 337.95 288.76 337.04 287.56
  Q 336.67 287.07 336.40 287.63
  Q 336.17 288.09 336.27 288.94
  L 335.26 293.97
  A 1.28 1.27 -81.8 0 1 333.91 294.98
  L 331.49 294.78
  Q 330.41 294.70 330.87 293.71
  Q 331.34 292.73 330.63 290.92
  Q 330.70 288.75 329.30 286.17
  Q 329.16 285.92 328.93 286.08
  Q 328.82 286.15 328.77 286.29
  Q 328.68 286.51 328.73 286.74
  Q 329.52 290.32 328.88 293.89
  A 1.00 0.99 -11.2 0 1 328.45 294.53
  Q 326.65 295.69 326.62 291.79
  Q 326.62 290.77 326.64 289.61
  Q 326.74 285.39 326.39 281.13
  Q 328.95 280.77 330.27 281.26
  Q 330.83 282.16 331.65 285.49
  Q 332.81 290.22 333.83 288.55
  L 335.30 282.63
  L 337.19 280.74
  Z"
/>
<path fill="#878887" d="
  M 18.11 284.07
  C 16.73 283.83 15.16 283.42 14.95 281.76
  Q 14.85 281.00 15.63 281.00
  L 26.64 281.07
  A 0.63 0.62 15.3 0 1 27.18 282.00
  C 26.03 284.00 25.00 283.29 23.48 284.32
  Q 22.97 284.66 22.98 285.27
  Q 23.06 289.01 22.79 292.66
  Q 22.66 294.38 21.14 295.56
  Q 20.61 295.97 19.79 295.48
  A 1.14 1.12 -78.5 0 1 19.25 294.65
  Q 18.77 290.65 19.05 285.25
  A 1.15 1.14 6.6 0 0 18.11 284.07
  Z"
/>
<path fill="#878887" d="
  M 40.96 290.93
  L 40.95 294.01
  A 1.06 1.06 0.0 0 1 39.90 295.07
  Q 39.71 295.07 39.51 295.09
  Q 38.03 295.22 38.03 293.74
  L 38.03 281.56
  Q 38.03 280.95 38.64 280.99
  Q 41.72 281.19 45.10 280.99
  C 48.37 280.80 50.91 283.27 49.66 286.60
  Q 49.45 287.16 48.99 287.54
  Q 47.92 288.40 47.95 289.76
  Q 47.97 290.33 48.35 290.76
  Q 49.25 291.74 49.88 292.98
  Q 50.71 294.63 48.89 294.94
  L 48.43 295.02
  Q 46.72 295.31 45.81 293.83
  L 43.74 290.48
  Q 43.52 290.12 43.11 290.03
  Q 42.44 289.88 41.68 290.04
  A 0.91 0.90 84.2 0 0 40.96 290.93
  Z
  M 46.5853 284.5405
  A 0.86 0.86 0.0 0 0 45.6857 283.7220
  L 41.8899 283.9010
  A 0.86 0.86 0.0 0 0 41.0714 284.8005
  L 41.1147 285.7195
  A 0.86 0.86 0.0 0 0 42.0143 286.5380
  L 45.8101 286.3590
  A 0.86 0.86 0.0 0 0 46.6286 285.4595
  L 46.5853 284.5405
  Z"
/>
<path fill="#878887" d="
  M 64.99 292.93
  C 64.39 295.05 62.23 295.56 60.56 294.18
  Q 60.10 293.81 60.39 293.29
  Q 63.65 287.48 65.20 281.60
  Q 65.36 280.97 66.03 280.96
  L 68.65 280.94
  Q 69.27 280.93 69.51 281.51
  L 74.81 294.00
  Q 75.22 294.98 74.16 294.98
  L 72.30 294.97
  Q 71.35 294.97 71.05 294.07
  Q 70.15 291.30 65.92 292.09
  Q 65.20 292.22 64.99 292.93
  Z
  M 68.82 287.41
  Q 68.23 286.28 67.85 285.13
  A 0.42 0.41 -45.5 0 0 67.06 285.14
  L 65.94 288.60
  Q 65.68 289.42 66.53 289.52
  Q 67.47 289.63 68.39 289.37
  A 0.92 0.92 0.0 0 0 69.06 288.57
  Q 69.12 287.97 68.82 287.41
  Z"
/>
<path fill="#878887" d="
  M 156.89 287.51
  L 157.07 282.24
  Q 157.12 280.86 158.51 280.93
  L 159.50 280.98
  Q 160.96 281.05 160.96 282.51
  L 160.97 294.19
  Q 160.97 294.95 160.21 295.01
  Q 158.59 295.15 156.91 294.58
  A 1.33 1.29 84.2 0 1 156.18 293.97
  L 153.44 289.09
  Q 151.96 286.44 151.87 289.48
  Q 151.82 291.46 151.98 293.55
  Q 152.09 294.93 150.71 295.06
  L 150.24 295.10
  A 1.12 1.11 -2.6 0 1 149.02 293.99
  L 149.03 282.04
  Q 149.03 281.11 149.94 280.94
  Q 152.03 280.55 153.03 282.00
  Q 154.72 284.44 156.27 287.64
  Q 156.84 288.81 156.89 287.51
  Z"
/>
<path fill="#878887" d="
  M 242.22 284.63
  L 243.31 282.40
  Q 243.86 281.26 245.12 281.12
  L 246.98 280.92
  Q 248.07 280.80 247.58 281.78
  C 246.93 283.08 246.41 284.45 245.51 285.58
  Q 242.70 289.14 242.71 294.64
  A 1.15 1.15 0.0 0 1 240.82 295.53
  Q 240.07 294.90 240.15 293.77
  C 240.58 287.93 237.07 286.63 235.03 282.07
  Q 234.73 281.42 235.41 281.20
  Q 237.63 280.49 239.28 281.78
  Q 239.68 282.10 239.82 282.60
  Q 240.22 283.98 241.32 284.84
  Q 241.90 285.29 242.22 284.63
  Z"
/>
<path fill="#878887" d="
  M 287.94 284.89
  Q 288.16 289.33 287.77 294.19
  A 1.35 1.23 62.7 0 1 287.65 294.64
  Q 286.62 296.67 285.46 295.15
  A 1.11 1.09 24.0 0 1 285.24 294.59
  Q 284.87 290.12 285.04 284.83
  A 0.86 0.86 0.0 0 0 284.14 283.93
  L 282.22 284.00
  Q 281.15 284.04 280.98 282.98
  L 280.83 282.04
  Q 280.67 281.01 281.71 281.01
  L 290.93 281.00
  Q 292.23 281.00 292.06 282.29
  Q 292.03 282.55 292.01 282.80
  Q 291.90 283.97 290.72 284.00
  L 288.75 284.03
  Q 287.90 284.05 287.94 284.89
  Z"
/>
<path fill="#d5c4c6" d="
  M 303.82 281.04
  Q 303.18 286.63 303.62 292.54
  C 303.71 293.65 304.25 294.19 304.97 294.93
  L 304.52 295.03
  A 1.24 1.24 0.0 0 1 303.02 293.82
  Q 303.00 287.61 303.20 281.75
  Q 303.23 280.95 303.82 281.04
  Z"
/>
<path fill="#878887" d="
  M 303.82 281.04
  L 312.82 281.02
  A 1.22 1.22 0.0 0 1 314.04 282.23
  L 314.05 282.69
  Q 314.07 284.16 312.62 284.00
  Q 309.95 283.72 307.33 284.35
  Q 306.99 284.43 306.96 284.77
  L 306.94 285.09
  A 0.92 0.92 0.0 0 0 307.85 286.08
  L 313.35 286.16
  Q 314.04 286.17 314.05 286.85
  L 314.06 288.01
  Q 314.08 288.84 313.25 288.87
  L 308.06 289.04
  Q 306.62 289.08 306.89 290.50
  L 306.98 291.00
  Q 307.18 292.04 308.24 292.07
  L 313.21 292.19
  Q 314.40 292.22 314.80 293.34
  Q 314.84 293.46 314.92 293.67
  Q 315.34 294.86 314.07 294.87
  L 304.97 294.93
  C 304.25 294.19 303.71 293.65 303.62 292.54
  Q 303.18 286.63 303.82 281.04
  Z"
/>
<path fill="#d5c4c6" d="
  M 326.39 281.13
  Q 326.74 285.39 326.64 289.61
  Q 326.62 290.77 326.62 291.79
  Q 326.65 295.69 328.45 294.53
  A 1.00 0.99 -11.2 0 0 328.88 293.89
  Q 329.52 290.32 328.73 286.74
  Q 328.68 286.51 328.77 286.29
  Q 328.82 286.15 328.93 286.08
  Q 329.16 285.92 329.30 286.17
  Q 330.70 288.75 330.63 290.92
  Q 329.63 291.86 330.12 294.07
  Q 330.32 294.98 329.39 294.97
  L 326.96 294.95
  A 0.89 0.89 0.0 0 1 326.08 294.03
  L 326.39 281.13
  Z"
/>
<path fill="#d5c4c6" d="
  M 330.27 281.26
  Q 331.92 281.52 331.88 283.12
  Q 331.80 285.64 333.83 288.55
  Q 332.81 290.22 331.65 285.49
  Q 330.83 282.16 330.27 281.26
  Z"
/>
<path fill="#d5c4c6" d="
  M 222.86 285.52
  L 222.10 286.14
  Q 222.21 286.84 221.50 286.72
  Q 220.23 286.51 216.72 285.25
  Q 215.83 284.93 216.27 284.10
  Q 217.05 282.62 220.89 284.41
  Q 221.74 284.81 222.54 285.31
  L 222.86 285.52
  Z"
/>
<path fill="#d5c4c6" d="
  M 269.63 283.26
  Q 270.77 285.28 267.15 286.22
  Q 264.46 285.89 263.72 285.60
  Q 259.73 284.02 263.92 283.35
  Q 265.35 283.12 266.68 284.59
  Q 267.07 285.01 267.61 284.84
  Q 268.51 284.56 269.63 283.26
  Z"
/>
<rect fill="#d5c4c6" x="-2.76" y="-1.32" transform="translate(43.85,285.13) rotate(-2.7)" width="5.52" height="2.64" rx="0.86"/>
<path fill="#d5c4c6" d="
  M 68.82 287.41
  Q 69.12 287.97 69.06 288.57
  A 0.92 0.92 0.0 0 1 68.39 289.37
  Q 67.47 289.63 66.53 289.52
  Q 65.68 289.42 65.94 288.60
  L 67.06 285.14
  A 0.42 0.41 -45.5 0 1 67.85 285.13
  Q 68.23 286.28 68.82 287.41
  Z"
/>
<path fill="#d5c4c6" d="
  M 337.08 290.30
  Q 336.89 289.27 336.27 288.94
  Q 336.17 288.09 336.40 287.63
  Q 336.67 287.07 337.04 287.56
  Q 337.95 288.76 337.08 290.30
  Z"
/>
</svg>
