<?xml version="1.0" encoding="utf-8"?>
<svg viewBox="376.89 396.1581 326.22 287.6911" width="326.22px" height="287.691px" xmlns="http://www.w3.org/2000/svg">
  <g transform="matrix(1, 0, 0, 1, 540, 540.0000000000001)">
    <g style="" vector-effect="non-scaling-stroke">
      <g transform="matrix(1 0 0 1 40.18 -88.53)">
        <path style="stroke: none; stroke-width: 1; stroke-dasharray: none; stroke-linecap: butt; stroke-dashoffset: 0; stroke-linejoin: miter; stroke-miterlimit: 4; fill: rgb(241,183,34); fill-rule: nonzero; opacity: 1;" vector-effect="non-scaling-stroke" transform=" translate(-217.3, -61.81)" d="M 266.37 30.73 Q 270.57 34.73 274.79 38.77 Q 276.25 40.18 276.9 41.92 C 277.5 43.51 279.05 44.38 280 45.86 Q 281.46 48.16 282.69 50.27 Q 284.28 53.01 281.14 53.42 Q 279.14 53.68 277.31 53.92 Q 274.46 54.29 272.68 52.03 C 270.78 49.61 269.2 46.84 267.07 44.66 C 265.27 42.81 263.98 40.42 261.91 38.95 C 259.23 37.04 257.62 34.41 254.77 32.54 C 252 30.72 249.61 28.43 246.7 26.85 Q 236.94 21.51 227.57 18.59 Q 224.38 17.59 215.26 16.22 Q 197.78 13.58 181.19 18.65 Q 178.54 19.46 170.57 22.5 C 167.94 23.5 165.88 24.87 163.8 26.61 C 163.40183474565683 26.945825130333237 163.3359440569375 27.534448616225827 163.65 27.95 L 167.49 33.04 C 168.0906274213262 33.836328507132556 169.16683064852887 34.10329364876423 170.07 33.68 Q 174.01 31.83 178.01 30.08 Q 181.75 28.45 187.5 27.62 C 188.55 27.47 189.31 26.67 190.37 26.46 Q 203.37 23.96 213.53 25.57 Q 219.11 26.45 225.61 28.13 Q 232.21 29.83 237.57 32.86 C 243.29 36.09 248.88 39.63 253.46 44.05 Q 255.63 46.15 257.85 48.17 Q 259.53 49.7 260.9 51.82 Q 262.29 53.96 263.96 55.8 Q 265.45 57.46 266.63 59.69 Q 271.38 68.69 273.84 77.31 Q 276.84 87.82 276.52 98.29 Q 276.49 99.3 275.49 99.53 Q 272.98 100.11 270.14 99.91 Q 259.8 99.18 250.34 98.76 C 249.4938520988592 98.71815148698069 248.82498595056896 98.03179864200312 248.81 97.19 C 248.54 78.43 237.71 62.55 220.29 55.72 C 210.52 51.89 198.07 52.4 188.18 55.95 C 187.88415445924508 56.05509273092019 187.61678701479025 56.229909906140655 187.4 56.46 Q 186.31 57.62 187.17 58.82 C 188.43 60.58 191.02 65.07 193.61 64.34 Q 203.51 61.55 213.9 63.87 Q 221.18 65.5 228.43 72.48 Q 238.64 82.3 238.96 96.47 Q 239 98.48 236.99 98.36 L 224.77 97.65 C 223.71873098220848 97.58683748180513 222.79374435401704 98.33811770094654 222.64 99.38 Q 221.56 106.91 216.89 111.28 Q 211.8 116.04 205.35 116.7 Q 195.93 117.65 188.84 110.88 Q 187.5 109.61 186.77 108.25 C 186.05 106.91 185.02 105.68 184.59 104.22 Q 181.66 94.33 186.39 85.92 C 187.88 83.28 190.02 82.44 192.19 80.62 Q 193.4 79.6 194.88 79.01 Q 205.76 74.62 214.89 81.23 Q 216.5 82.39 218.01 84.26 C 220.74 87.62 221.97 89.53 226.99 88.89 Q 228.86 88.65 228.04 86.95 Q 226.32 83.37 222.72 79.26 Q 220.11 76.28 216.15 74.36 Q 203.97 68.48 191.15 75.35 Q 189.74 76.1 188.12 74.62 C 185.83 72.51 184.74 69.98 182.81 67.62 Q 178.06 61.83 173.54 55.51 Q 172.8 54.47 173.85 53.75 Q 188.1 43.94 205.33 43.74 Q 214.26 43.63 224.5 47.66 Q 242.64 54.79 252.62 73.82 Q 255.92 80.12 256.76 87.48 Q 257.09 90.44 260.07 90.38 L 265.22 90.28 Q 267.22 90.25 266.86 88.28 Q 264.76 76.84 261.45 70.08 Q 253.02 52.87 237.14 43.12 C 233.82 41.08 230.39 39.9 227.03 38.2 C 223.47 36.4 219.54 35.94 215.6 35.05 Q 213.3 34.53 210.87 34.44 C 203.32 34.15 196.21 34.07 188.69 36.17 Q 177.5 39.28 167.6 45.94 C 167.1402371565985 46.25052786747528 166.51823396316823 46.14978087135629 166.18 45.71 L 151.28 26.27 C 150.95196347489966 25.841152378244153 150.81237277077983 25.29758107445889 150.89355573111803 24.765171892705947 C 150.97473869145625 24.232762710953004 151.2696532225931 23.75769868406863 151.71 23.45 Q 158.13 18.94 164.96 15.34 Q 167.35 14.08 170.03 13.28 C 172.41 12.56 174.59 11.32 176.96 10.6 Q 190.81 6.41 206.01 6.5 Q 239.15 6.68 264.34 28.67 C 265.1 29.34 265.64 30.04 266.37 30.73 Z M 216.01 96.96 C 216.01 89.79134394719631 210.1986560528037 83.98 203.03 83.98 C 195.8613439471963 83.98000000000002 190.05 89.79134394719631 190.05 96.96 C 190.05 104.12865605280369 195.8613439471963 109.94 203.03 109.94 C 210.1986560528037 109.94 216.01 104.12865605280369 216.01 96.96 Z" stroke-linecap="round"/>
      </g>
      <g transform="matrix(1 0 0 1 24.57 -39.07)">
        <path style="stroke: none; stroke-width: 1; stroke-dasharray: none; stroke-linecap: butt; stroke-dashoffset: 0; stroke-linejoin: miter; stroke-miterlimit: 4; fill: rgb(29,72,112); fill-rule: nonzero; opacity: 1;" vector-effect="non-scaling-stroke" transform=" translate(-201.7, -111.27)" d="M 137.84 93.27 L 137.97 84.87 Q 141.11 58.99 158.88 42.13 Q 159.95 41.12 160.68 42.39 Q 162.34 45.25 164.59 47.65 Q 165.4 48.52 164.53 49.32 C 153.02 59.85 147.2 75.23 147.33 90.74 C 147.46 106.63 156.04 121.87 166.38 133.66 Q 172.3 140.41 178.65 146.61 Q 189.51 157.2 201.55 168.01 C 202.02179039690597 168.42745121062822 202.72828894704608 168.43596324135282 203.21 168.03 Q 223.14 151.11 239.56 132.36 Q 251.71 118.49 256.28 101.65 Q 256.38 101.28 256.76 101.28 L 265.24 101.24 Q 265.6 101.24 265.51 101.59 Q 263.35 110 262.03 112.98 Q 256.1 126.35 246.06 138.33 Q 235.73 150.67 222.88 162.59 Q 213.2 171.57 203.64 180.68 C 203.0354832360973 181.2618884469819 202.08242969069252 181.27929581767424 201.45 180.72 Q 199.35 178.87 197.33 176.89 Q 182.61 162.51 168.56 148.18 Q 161.87 141.36 155.66 134.11 Q 145.14 121.81 140.45 106.76 Q 139.25 102.88 137.84 93.27 Z" stroke-linecap="round"/>
      </g>
      <g transform="matrix(1 0 0 1 23.51 -54.41)">
        <path style="stroke: none; stroke-width: 1; stroke-dasharray: none; stroke-linecap: butt; stroke-dashoffset: 0; stroke-linejoin: miter; stroke-miterlimit: 4; fill: rgb(29,72,112); fill-rule: nonzero; opacity: 1;" vector-effect="non-scaling-stroke" transform=" translate(-200.63, -95.93)" d="M 239.14 100.44 Q 239.16 100.75 239.18 101.06 L 246.21 101.2 C 246.48590364083898 101.20827752373661 246.74274044137601 101.34274079857869 246.90524946733885 101.56398802669678 C 247.0677584933017 101.78523525481486 247.11753759750127 102.0682129105178 247.04 102.33 C 243.15 115.71 233.7 126.09 221.1 131.92 Q 212.38 135.96 201.61 135.96 Q 183.3 135.97 169.9 122.52 Q 165.01 117.62 161.39 110.84 Q 158.06 104.64 156.87 98.64 Q 152.17 75.1 169.19 56.8 Q 170.34 55.58 171.31 56.94 L 174.87 61.92 Q 175.65 63.01 174.73 63.98 C 165.62 73.6 163.91 87.25 166.62 99.93 C 169.42 113.07 182.09 123.07 194.34 125.94 C 209.74 129.53 226.2 122.46 234.41 109 Q 234.51 108.82 236.52 104.6 Q 237.52 102.51 239.14 100.44 Z" stroke-linecap="round"/>
      </g>
      <g transform="matrix(1 0 0 1 -84.93 70.64)">
        <path style="stroke: none; stroke-width: 1; stroke-dasharray: none; stroke-linecap: butt; stroke-dashoffset: 0; stroke-linejoin: miter; stroke-miterlimit: 4; fill: rgb(29,72,112); fill-rule: nonzero; opacity: 1;" vector-effect="non-scaling-stroke" transform=" translate(-92.2, -220.97)" d="M 64.09 239.23 L 63.73 192.77 Q 64.48 192.25 64.75 192.25 Q 74.37 192.3 83.75 192.19 C 84.09997450612875 192.1846044589447 84.4373386325276 192.3205622716467 84.6857766509033 192.56711818382263 C 84.93421466927903 192.81367409599852 85.072734020435 193.14999458299107 85.07 193.5 Q 85.03 214.38 85.09 235.49 C 85.11 239.38 85.56 245.15 88.72 247.79 C 92.64 251.05 97.91 247.58 98.61 243.06 C 98.93 241.01 99.37 239.03 99.41 236.93 Q 99.77 215.17 99.62 193.61 C 99.61382884354082 192.65460349192142 100.09141151916467 191.7596060368153 100.89 191.23 L 119.27 179.02 C 119.52608305536516 178.84946563584015 119.85549056474639 178.8345789041733 120.12591204041466 178.98131923980725 C 120.39633351608293 179.1280595754412 120.56339721757043 179.41234928974998 120.56 179.72 Q 120.25 199.8 120.38 220.74 Q 120.4 224.22 120.53 227.76 Q 120.76 233.84 120.01 240.32 Q 119.19 247.29 116.61 251.52 Q 111.54 259.82 101.22 262.03 C 84.51 265.61 65.97 260.28 64.69 240.23 Q 64.64 239.34 64.09 239.23 Z" stroke-linecap="round"/>
      </g>
      <g transform="matrix(1 0 0 1 134.8 76.95)">
        <path style="stroke: none; stroke-width: 1; stroke-dasharray: none; stroke-linecap: butt; stroke-dashoffset: 0; stroke-linejoin: miter; stroke-miterlimit: 4; fill: rgb(29,72,112); fill-rule: nonzero; opacity: 1;" vector-effect="non-scaling-stroke" transform=" translate(-311.93, -227.29)" d="M 318.75 217.56 L 318.68 212.18 Q 319.45 208.15 318.67 204.21 L 318.94 191.66 L 338.87 192.28 C 339.5446863160591 192.30160093605886 340.08034570208224 192.85496807038032 340.08 193.53 L 340.24 275.29 C 340.240240197333 275.42665610172463 340.19829872329785 275.55947076950247 340.12 275.67 Q 339.87 276.01 339.55 275.97 Q 339.17 275.93 338.99 275.59 Q 338.2 274.12 337.22 272.88 Q 322.71 254.36 310.64 238.31 Q 308.25 235.12 305.85 232.51 Q 304.73 231.28 304.74 232.94 L 304.81 261.73 C 304.81 262.43692447978344 304.2324473272817 263.01 303.52 263.01 L 284.98 262.91 C 284.3007168623981 262.9044485426065 283.7545060725674 262.3537606151542 283.76 261.68 Q 283.87 225.87 283.68 191.25 Q 283.66 186.26 283.62 180.47 Q 283.6 178.05 285.07 179.97 L 318.09 222.99 Q 318.47 223.48 318.7 222.91 Q 319.75 220.39 318.75 217.56 Z" stroke-linecap="round"/>
      </g>
      <g transform="matrix(1 0 0 1 24.97 83.66)">
        <path style="stroke: none; stroke-width: 1; stroke-dasharray: none; stroke-linecap: butt; stroke-dashoffset: 0; stroke-linejoin: miter; stroke-miterlimit: 4; fill: rgb(241,183,34); fill-rule: nonzero; opacity: 1;" vector-effect="non-scaling-stroke" transform=" translate(-202.1, -234)" d="M 196.45 273.82 Q 194.76 275.33 192.31 276.07 C 192.10607525051284 276.1303196082851 191.885624147391 276.090247663125 191.71597173959714 275.9620220060715 C 191.54631933180326 275.833796349018 191.44761398846882 275.6326453986007 191.45 275.42 Q 191.71 237.65 191.4 199.9 C 191.39 197.73 191.67 195.6 191.64 193.44 C 191.62838771852802 192.7443553766583 192.17022051872516 192.1669925567761 192.86 192.14 Q 202.1 191.79 211.93 192.33 C 212.38212478143413 192.35151565941794 212.73590018176876 192.72740202227348 212.73 193.18 Q 212.61 200.72 212.65 206.93 Q 212.84 237.97 212.66 258.71 Q 212.64 260.19 212.14 261.7 Q 211.72 262.96 210.71 263.67 Q 204.67 267.92 199.25 271.64 Q 197.74 272.67 196.45 273.82 Z" stroke-linecap="round"/>
      </g>
      <g transform="matrix(1 0 0 1 -141.53 77.31)">
        <path style="stroke: none; stroke-width: 1; stroke-dasharray: none; stroke-linecap: butt; stroke-dashoffset: 0; stroke-linejoin: miter; stroke-miterlimit: 4; fill: rgb(29,72,112); fill-rule: nonzero; opacity: 1;" vector-effect="non-scaling-stroke" transform=" translate(-35.59, -227.65)" d="M 57.18 193.05 L 57.09 206.49 Q 44.45 205.64 29.4 206.18 Q 28.51 206.21 29.12 206.85 L 34.68 212.75 C 35.1419923263652 213.23707996801826 35.396579595517245 213.88968395373197 35.39 214.57 L 35.27 233.31 C 35.26708906395362 233.77670141499385 35.45395714219257 234.22454964642634 35.78772109088544 234.55077090701315 C 36.12148503957832 234.87699216759998 36.573487009915645 235.053576243533 37.04 235.04 L 56.84 234.49 L 57.01 248.58 C 57.01 248.82300528992556 56.81748244242724 249.02 56.58 249.02 L 35.66 248.98 L 35.36 261.99 C 35.34376365810407 262.55262731582366 34.88286149312884 263.00023422604 34.32 263 Q 25.35 262.93 16 263.05 Q 14.9 263.06 14.37 262.21 L 14.38 193.73 Q 14.38 193.64 14.3 193.61 Q 14.21 193.57 14.05 193.54 L 14.01 193 Q 14.78 192.25 15.25 192.25 Q 35.25 192.24 55.25 192.26 Q 55.87 192.27 57.18 193.05 Z" stroke-linecap="round"/>
      </g>
      <g transform="matrix(1 0 0 1 -21.05 77.24)">
        <path style="stroke: none; stroke-width: 1; stroke-dasharray: none; stroke-linecap: butt; stroke-dashoffset: 0; stroke-linejoin: miter; stroke-miterlimit: 4; fill: rgb(29,72,112); fill-rule: nonzero; opacity: 1;" vector-effect="non-scaling-stroke" transform=" translate(-156.07, -227.58)" d="M 161.37 262.88 Q 151.29 263.75 142.72 261.25 C 133.88 258.66 128.09 252.47 128.05 242.72 Q 128.05 242.08 128.69 242.07 L 147.55 241.89 C 148.14659444893857 241.88622630619278 148.64833293860693 242.33173548236383 148.71 242.92 C 149.6 251.29 162.48 250.95 163.25 243.59 C 163.73 239.08 162.24 234.78 157.09 234.67 C 145.74 234.44 131.29 232.19 128.56 219.02 Q 127.72 215.01 128.29 209.8 C 129.4 199.51 137.78 194.06 147.35 192.84 Q 159.64 191.26 169.11 193.71 Q 182.95 197.29 184.25 211.87 C 184.27795809644127 212.1983121403187 184.16853568825138 212.52334929556406 183.9482068312846 212.76647079290672 C 183.7278779743178 213.00959229024937 183.41671434326588 213.14865007485707 183.09 213.15 L 164.8 213.25 C 164.06767904834558 213.25542488983228 163.43212701985593 212.74112949835708 163.28 212.02 Q 161.88 205.29 154.56 206.22 Q 148.73 206.96 148.77 213.53 C 148.8 218.28 151.77 220.77 156.32 220.64 C 165.87 220.37 178.65 223.04 182.42 232.65 C 185.92 241.57 184.33 254.02 175.2 258.92 Q 169.05 262.22 161.37 262.88 Z" stroke-linecap="round"/>
      </g>
      <g transform="matrix(1 0 0 1 71.07 77.29)">
        <path style="stroke: none; stroke-width: 1; stroke-dasharray: none; stroke-linecap: butt; stroke-dashoffset: 0; stroke-linejoin: miter; stroke-miterlimit: 4; fill: rgb(29,72,112); fill-rule: nonzero; opacity: 1;" vector-effect="non-scaling-stroke" transform=" translate(-248.2, -227.63)" d="M 276.2413 238.907 C 276.17161834806365 252.2168645764144 265.3253646910974 262.9501597429427 252.0155 262.8805 L 244.0156 262.8386 C 237.62395964379397 262.80513773539013 231.50739798032936 260.2339725925744 227.01149287154632 255.69073328355125 C 222.51558776276332 251.1474939745281 220.00862159666622 245.0043402716943 220.0421 238.6127 L 220.1587 216.353 C 220.2283816519364 203.04313542358562 231.07463530890263 192.30984025705735 244.3845 192.3795 L 252.3844 192.4214 C 258.776040356206 192.45486226460983 264.8926020196707 195.0260274074256 269.3885071284537 199.56926671644877 C 273.8844122372367 204.11250602547193 276.39137840333376 210.25565972830572 276.3579 216.64730000000003 L 276.2413 238.907 Z M 247.93 206.09 C 243.39 206.04 241.51 211.47 241.24 215 Q 240.55 223.81 241.09 237.21 C 241.26 241.19 241.54 244.91 244.21 247.46 C 246.62 249.77 250.53 249.46 252.65 246.88 C 254.83 244.22 255.28 241.02 255.38 237.65 Q 255.71 226.9 255.31 216.51 C 255.21 213.72 254.44 210.96 253.05 208.69 Q 251.49 206.12 247.93 206.09 Z" stroke-linecap="round"/>
      </g>
      <g transform="matrix(0.99 0 0 0.87 0.39 137.56)">
        <path style="stroke: none; stroke-width: 1; stroke-dasharray: none; stroke-linecap: butt; stroke-dashoffset: 0; stroke-linejoin: miter; stroke-miterlimit: 4; fill: rgb(134,136,134); fill-rule: nonzero; opacity: 1;" vector-effect="non-scaling-stroke" transform=" translate(-233.86, -266.22)" d="M 73.976 273.201 L 73.976 261.593 L 69.83 261.593 L 69.83 259.229 L 80.933 259.229 L 80.933 261.593 L 76.797 261.593 L 76.797 273.201 Z M 92.836 273.201 L 92.836 259.229 L 98.774 259.229 Q 101.013 259.229 102.028 259.606 Q 103.043 259.982 103.653 260.945 Q 104.263 261.907 104.263 263.146 Q 104.263 264.719 103.339 265.743 Q 102.414 266.768 100.575 267.035 Q 101.49 267.568 102.086 268.207 Q 102.681 268.846 103.692 270.475 L 105.397 273.201 L 102.024 273.201 L 99.984 270.161 Q 98.898 268.531 98.497 268.107 Q 98.097 267.683 97.649 267.526 Q 97.201 267.368 96.229 267.368 L 95.657 267.368 L 95.657 273.201 Z M 95.657 265.138 L 97.744 265.138 Q 99.774 265.138 100.28 264.967 Q 100.785 264.795 101.071 264.376 Q 101.357 263.956 101.357 263.327 Q 101.357 262.622 100.98 262.188 Q 100.604 261.755 99.917 261.64 Q 99.574 261.593 97.859 261.593 L 95.657 261.593 Z M 129.603 273.201 L 126.534 273.201 L 125.314 270.027 L 119.729 270.027 L 118.576 273.201 L 115.583 273.201 L 121.025 259.229 L 124.008 259.229 Z M 124.409 267.673 L 122.484 262.489 L 120.597 267.673 Z M 150.137 268.064 L 152.872 268.931 Q 152.243 271.219 150.78 272.329 Q 149.317 273.439 147.068 273.439 Q 144.285 273.439 142.493 271.538 Q 140.702 269.637 140.702 266.339 Q 140.702 262.851 142.503 260.921 Q 144.304 258.991 147.239 258.991 Q 149.803 258.991 151.404 260.506 Q 152.357 261.402 152.834 263.08 L 150.041 263.747 Q 149.794 262.66 149.007 262.031 Q 148.221 261.402 147.096 261.402 Q 145.543 261.402 144.576 262.517 Q 143.608 263.632 143.608 266.129 Q 143.608 268.779 144.561 269.903 Q 145.514 271.028 147.039 271.028 Q 148.164 271.028 148.974 270.313 Q 149.784 269.598 150.137 268.064 Z M 165.412 273.201 L 165.412 259.229 L 168.233 259.229 L 168.233 265.434 L 173.932 259.229 L 177.725 259.229 L 172.465 264.671 L 178.011 273.201 L 174.361 273.201 L 170.52 266.644 L 168.233 268.979 L 168.233 273.201 Z M 189.465 273.201 L 189.465 259.229 L 192.286 259.229 L 192.286 273.201 Z M 205.099 273.201 L 205.099 259.229 L 207.844 259.229 L 213.562 268.56 L 213.562 259.229 L 216.183 259.229 L 216.183 273.201 L 213.352 273.201 L 207.72 264.09 L 207.72 273.201 Z M 235.747 268.064 L 235.747 265.71 L 241.827 265.71 L 241.827 271.276 Q 240.941 272.134 239.259 272.786 Q 237.577 273.439 235.852 273.439 Q 233.66 273.439 232.03 272.52 Q 230.4 271.6 229.581 269.889 Q 228.761 268.178 228.761 266.167 Q 228.761 263.985 229.676 262.289 Q 230.591 260.592 232.354 259.687 Q 233.698 258.991 235.699 258.991 Q 238.301 258.991 239.764 260.082 Q 241.227 261.173 241.646 263.099 L 238.844 263.623 Q 238.549 262.594 237.734 261.998 Q 236.919 261.402 235.699 261.402 Q 233.85 261.402 232.759 262.574 Q 231.668 263.747 231.668 266.053 Q 231.668 268.541 232.773 269.784 Q 233.879 271.028 235.671 271.028 Q 236.557 271.028 237.448 270.68 Q 238.339 270.332 238.978 269.837 L 238.978 268.064 Z M 269.302 268.655 L 272.047 268.388 Q 272.295 269.77 273.052 270.418 Q 273.81 271.066 275.097 271.066 Q 276.46 271.066 277.151 270.49 Q 277.842 269.913 277.842 269.141 Q 277.842 268.645 277.551 268.298 Q 277.26 267.95 276.536 267.692 Q 276.04 267.521 274.277 267.082 Q 272.009 266.52 271.094 265.7 Q 269.807 264.547 269.807 262.889 Q 269.807 261.822 270.412 260.892 Q 271.018 259.963 272.157 259.477 Q 273.295 258.991 274.906 258.991 Q 277.537 258.991 278.866 260.144 Q 280.196 261.297 280.262 263.223 L 277.441 263.346 Q 277.26 262.269 276.665 261.798 Q 276.069 261.326 274.878 261.326 Q 273.648 261.326 272.952 261.831 Q 272.504 262.155 272.504 262.698 Q 272.504 263.194 272.924 263.547 Q 273.457 263.995 275.516 264.481 Q 277.575 264.967 278.561 265.486 Q 279.547 266.005 280.105 266.906 Q 280.663 267.807 280.663 269.131 Q 280.663 270.332 279.995 271.381 Q 279.328 272.429 278.108 272.939 Q 276.888 273.449 275.068 273.449 Q 272.419 273.449 270.999 272.224 Q 269.579 270.999 269.302 268.655 Z M 296.806 273.201 L 296.806 267.321 L 291.688 259.229 L 294.995 259.229 L 298.283 264.757 L 301.505 259.229 L 304.754 259.229 L 299.618 267.34 L 299.618 273.201 Z M 315.525 268.655 L 318.27 268.388 Q 318.518 269.77 319.275 270.418 Q 320.033 271.066 321.32 271.066 Q 322.682 271.066 323.373 270.49 Q 324.064 269.913 324.064 269.141 Q 324.064 268.645 323.774 268.298 Q 323.483 267.95 322.759 267.692 Q 322.263 267.521 320.5 267.082 Q 318.232 266.52 317.317 265.7 Q 316.03 264.547 316.03 262.889 Q 316.03 261.822 316.635 260.892 Q 317.241 259.963 318.379 259.477 Q 319.518 258.991 321.129 258.991 Q 323.759 258.991 325.089 260.144 Q 326.418 261.297 326.485 263.223 L 323.664 263.346 Q 323.483 262.269 322.887 261.798 Q 322.292 261.326 321.1 261.326 Q 319.871 261.326 319.175 261.831 Q 318.727 262.155 318.727 262.698 Q 318.727 263.194 319.147 263.547 Q 319.68 263.995 321.739 264.481 Q 323.798 264.967 324.784 265.486 Q 325.77 266.005 326.328 266.906 Q 326.885 267.807 326.885 269.131 Q 326.885 270.332 326.218 271.381 Q 325.551 272.429 324.331 272.939 Q 323.111 273.449 321.291 273.449 Q 318.642 273.449 317.221 272.224 Q 315.801 270.999 315.525 268.655 Z M 342.488 273.201 L 342.488 261.593 L 338.342 261.593 L 338.342 259.229 L 349.445 259.229 L 349.445 261.593 L 345.309 261.593 L 345.309 273.201 Z M 361.339 273.201 L 361.339 259.229 L 371.698 259.229 L 371.698 261.593 L 364.16 261.593 L 364.16 264.69 L 371.174 264.69 L 371.174 267.044 L 364.16 267.044 L 364.16 270.847 L 371.965 270.847 L 371.965 273.201 Z M 384.403 273.201 L 384.403 259.229 L 388.625 259.229 L 391.161 268.76 L 393.667 259.229 L 397.899 259.229 L 397.899 273.201 L 395.278 273.201 L 395.278 262.203 L 392.504 273.201 L 389.788 273.201 L 387.024 262.203 L 387.024 273.201 Z" stroke-linecap="round"/>
      </g>
    </g>
  </g>
</svg>